<svg width="366" height="268" viewBox="0 0 366 268" fill="none" xmlns="http://www.w3.org/2000/svg"><path d="M248.956 124.556c-1.396 0-2.792-.014-4.188.007-.694.007-1.388.057-2.083.129-1.732.172-3.464.472-5.203.522-3.858.122-7.616.831-11.36 1.682-3.235.731-6.456 1.504-9.577 2.635-.651.236-1.324.472-2.004.601-2.863.558-5.433 1.854-8.024 3.092-.472.222-.938.472-1.424.651-2.692 1.017-5.24 2.355-7.852 3.551a46.88 46.88 0 00-5.061 2.727 122.622 122.622 0 01-4.524 2.619c-.608.337-1.267.587-1.911.852-.53.222-1.038.136-1.482-.207-.615-.48-1.231-.974-1.796-1.518a22.492 22.492 0 00-4.624-3.4c-.687-.379-1.339-.83-2.033-1.181-1.26-.637-2.326-1.51-3.378-2.441-2.226-1.975-4.624-3.693-7.473-4.702-2.219-.788-4.424-1.611-6.693-2.248-1.524-.429-3.063-.658-4.631-.794-2.548-.208-4.581.816-6.277 2.619-.358.38-.609.852-.952 1.246-1.697 1.925-1.289 5.426.351 7.258 1.188 1.331 2.634 2.283 4.223 3.02 1.739.802 3.493 1.575 5.361 2.048.336.086.658.214.988.336.25.093.415.458.272.63-1.611 1.947-3.193 3.915-4.853 5.819-.931 1.067-1.718 2.198-2.191 3.529-.472 1.331-.501 2.734-.68 4.116a1.7 1.7 0 00.101.773c1.195 3.235 1.846 3.958 4.946 4.065.694.022 1.395-.035 2.075-.15 2.856-.494 5.519-1.61 8.139-2.784.945-.423 1.818-1.038 2.648-1.668 2.906-2.226 5.862-4.381 9.205-5.941.945-.444 1.811-1.045 2.734-1.546 1.224-.666 2.456-1.331 3.708-1.933.573-.279 1.009-.637 1.367-1.159.287-.415.687-.423 1.138-.115a45.21 45.21 0 012.141 1.503c1.324 1.024 2.777 1.768 4.373 2.298 2.319.759 4.61 1.596 6.907 2.426 2.148.774 4.402 1.074 6.607 1.575.938.215 1.861.437 2.77.745.823.279 1.675.494 2.52.665 1.538.315 3.07.68 4.53 1.26.981.394 1.997.594 3.042.716 1.998.236 3.987.436 5.999.415 1.567-.014 3.142.057 4.71.122.515.021 1.037.136 1.546.243.143.029.379.222.365.308-.029.229-.122.501-.287.644-.329.279-.715.487-1.102.694-.837.466-1.696.902-2.534 1.36-2.19 1.203-3.894 2.928-5.282 4.975-.308.458-.365.988-.279 1.51.136.874.458 1.697 1.045 2.362.272.315.658.609 1.052.73a8.874 8.874 0 003.364.358 5.072 5.072 0 002.212-.737 40.757 40.757 0 012.748-1.51c.788-.394 1.632-.652 2.527-.544.336.043.659.2.974.329.2.079.3.544.157.68-.122.122-.236.265-.379.351-1.754 1.131-2.398 2.927-2.856 4.824-.172.709-.015 1.403.365 2.011.272.444.644.824.98 1.224.365.43.852.602 1.403.566.866-.064 1.754-.086 2.599-.251 2.218-.443 1.768.079 4.044-1.617.486-.365 1.045-.644 1.517-1.031.881-.716 1.818-1.389 2.556-2.233 2.24-2.563 4.631-4.975 7.021-7.387.551-.551 1.01-1.203 1.461-1.84.501-.708 1.002-1.431 1.41-2.204 1.102-2.105 2.627-3.901 4.022-5.798.745-1.024 1.704-1.768 2.921-2.097 1.281-.344 2.44-.931 3.557-1.618.15-.093.301-.186.458-.25 2.577-1.103 4.903-2.627 7.201-4.216 2.226-1.539 4.452-3.057 6.549-4.767a18.96 18.96 0 013.751-2.377c2.326-1.109 4.223-2.763 5.92-4.667.171-.193.322-.415.472-.622.236-.33.165-.945-.15-1.203-2.713-2.197-5.44-4.366-8.855-5.433a10.636 10.636 0 01-2.161-.916c-1.539-.873-3.207-1.36-4.903-1.761-.68-.157-1.36-.315-2.033-.501-2.785-.78-5.626-1.195-8.504-1.41-1.145-.086-2.197-.329-3.249-.845-1.482-.722-3.064-1.245-4.61-1.832-1.825-.694-3.371-1.804-4.81-3.099-1.424-1.289-2.849-2.57-4.273-3.858-3.286-2.978-7.051-5.082-11.324-6.306-1.081-.308-2.126-.788-3.164-1.239-1.975-.859-4.022-1.109-6.141-.794-.658.1-1.088.472-1.417 1.031-.959 1.639-.537 3.357.666 4.538.622.608 1.302 1.152 1.954 1.732.157.136.014.587-.194.651-.25.072-.494.193-.751.208-1.482.114-2.956.2-4.438-.007-.601-.086-1.217-.122-1.825-.194-2.169-.243-4.138.358-6.02 1.382-.916.494-1.417 1.252-1.575 2.269-.1.644.079 1.217.487 1.703.222.265.487.516.78.687 1.281.745 2.57 1.482 3.873 2.184.458.243.959.415 1.453.579 1.073.365 2.154.709 3.235 1.045.243.072.515.101.766.079.136-.014.315-.164.365-.293.043-.129-.014-.401-.1-.444-.938-.444-1.883-.909-2.856-1.267-1.811-.673-3.479-1.611-5.154-2.548-.301-.165-.565-.415-.802-.659-.257-.265-.293-.622-.193-.973a1.72 1.72 0 01.981-1.16c1.775-.787 3.607-1.31 5.583-.973 1.99.336 3.994.365 5.998.279.773-.036 1.553-.2 2.319-.344.244-.05.465-.222.68-.372.48-.336.594-1.245.193-1.632a9.352 9.352 0 00-1.002-.83c-.701-.515-1.438-.988-2.118-1.532-.659-.53-.917-1.252-.823-2.097.078-.773.472-1.296 1.295-1.417a6.05 6.05 0 013.085.315c1.389.515 2.799.98 4.209 1.431 3.264 1.038 6.342 2.477 9.047 4.581 1.647 1.281 3.207 2.691 4.71 4.145 1.704 1.646 3.443 3.206 5.676 4.115.151.058.265.215.38.344.057.064.136.172.121.222-.057.15-.128.372-.243.401-.415.107-.852.2-1.274.207-1.661.022-3.314.007-4.975.007.022-.028.022-.05.022-.064zm-42.833 10.873c.194.737-.35 1.324-.386 2.025-.036.745.157 1.403.708 1.89.387.336.867.565 1.296.866.279.193.53.429.737.601-.035.58-.372.873-.651 1.196a11.695 11.695 0 00-1.754 2.584c-.615 1.231-.515 1.868.473 2.777.257.236.544.436.809.658.25.222.229.659-.051.909-.257.229-.551.43-.808.666-.945.88-1.482 1.918-1.189 3.257.015.071-.043.157-.078.286-.222.057-.466.172-.716.179-1.145.007-2.255-.265-3.328-.615-2.978-.967-5.956-1.947-8.898-3.028-2.075-.766-3.786-2.126-5.225-3.801-.207-.236-.157-.773.072-.952.207-.158.401-.344.622-.465 1.375-.759 2.756-1.496 4.131-2.241.536-.286 1.123-.515 1.581-.894.888-.738 1.912-1.21 2.914-1.733 1.395-.715 2.827-1.36 4.244-2.018a321.57 321.57 0 014.288-1.933c.408-.179.823-.286 1.26-.143l.05-.1-.101.029zm47.807-9.37c3.622.172 6.671.322 9.721.472.257.015.522.058.78.093 3.457.48 6.864 1.224 10.257 2.033a18.17 18.17 0 013.93 1.418 17.05 17.05 0 002.426.966c2.885.909 5.354 2.512 7.595 4.502.408.365.408.959-.015 1.389-.988.987-1.975 1.968-3.228 2.641-1.152.616-2.269 1.303-3.421 1.925a16.22 16.22 0 00-2.613 1.74c-.472.386-.945.773-1.446 1.116a1798.52 1798.52 0 01-7.558 5.154 30.87 30.87 0 01-6.493 3.357c-2.448.909-4.967 1.61-7.465 2.376-.666.201-1.36.33-2.047.437-.945.15-1.911.208-2.849.394-1.124.222-2.212.465-3.271-.272-.251-.179-.673-.115-1.017-.158-.429-.057-.88-.064-1.288-.179-.773-.214-1.432-.615-1.883-1.317-.171-.272-.1-.751.172-.923.222-.143.43-.308.673-.401.487-.186.995-.293 1.475-.487.243-.1.415-.372.329-.637-.072-.229-.222-.494-.422-.601-.294-.157-.659-.193-.995-.265-.895-.186-1.597-.68-2.162-1.374-.294-.358-.351-.78-.186-1.224.365-.974 1.109-1.546 2.047-1.883.487-.171 1.016-.236 1.51-.393.136-.043.236-.229.322-.373.101-.164-.078-.586-.279-.658a85.41 85.41 0 00-1.224-.437c-.823-.286-1.66-.529-2.355-1.095-.315-.257-.393-.844-.143-1.174a3.982 3.982 0 012.133-1.431c.337-.093.687-.115 1.024-.194.315-.071.601-.436.587-.758a.646.646 0 00-.43-.601c-.401-.158-.83-.258-1.245-.38-1.353-.386-2.613-.966-3.758-1.796-.587-.43-.651-1.239-.165-1.847.566-.702 1.282-1.16 2.112-1.482.322-.129.63-.279.937-.444.258-.136.273-.787.015-.923-.38-.2-.766-.394-1.174-.537-1.074-.379-2.147-.744-3.064-1.439-.279-.207-.536-.443-.551-.837-.014-.344.337-.773.795-.923.25-.086.494-.165.751-.229 1.654-.394 3.286-.373 4.896.207.487.172.988.337 1.496.408.186.029.451-.207.609-.386.193-.222.107-.523-.072-.716a3.307 3.307 0 00-.816-.63c-.458-.251-.945-.437-1.417-.659-.065-.028-.122-.121-.143-.193-.05-.207.057-.343.279-.343 2.97-.029 5.934-.029 8.324-.029zm-13.313 7.093c-.15.244-.329.537-.516.831-.193.293-.415.565-.579.866-.709 1.252-.48 2.398.673 3.206.644.451 1.345.809 1.997 1.246.2.136.315.386.479.594-.15.251-.257.494-.415.701-.208.28-.494.502-.68.795a6.513 6.513 0 00-.573 1.16c-.157.436-.071.894.251 1.216.422.43.916.795 1.374 1.196.244.207.287.68.115.952-.415.658-.895 1.295-1.231 1.997-.365.759-.244 1.546.264 2.226.258.343.602.63.895.945.487.515.487.651.007 1.331-.15.215-.329.408-.472.623a1.053 1.053 0 000 1.224c.236.358.508.708.816 1.009.436.429.916.802 1.374 1.203.143.128-.007.594-.207.651-.251.064-.501.179-.759.186-2.09.079-4.18.093-6.263.351-.251.028-.573.043-.766-.079-.83-.523-1.639-.301-2.505-.107-.666.15-1.389.107-2.083.1-2.792-.036-5.583-.05-8.368-.151-2.09-.071-4.194-.136-6.213-.751-2.254-.68-4.523-1.31-6.828-1.782-.63-.129-1.124-.451-1.346-1.103-.15-.443-.544-.651-.923-.88a22.442 22.442 0 01-1.103-.694c-.229-.158-.25-.702-.042-.952.164-.201.307-.437.515-.58a7.276 7.276 0 011.131-.644c.544-.265 1.116-.48 1.66-.759.487-.251.501-1.038.043-1.296-.229-.128-.465-.236-.694-.365-.68-.386-1.367-.758-2.026-1.188-.451-.293-.551-.923-.315-1.403.559-1.116 1.375-2.011 2.377-2.741.422-.308.852-.594 1.274-.902.2-.15.365-.78.229-.966-.15-.201-.336-.423-.551-.523-.866-.401-1.79-.687-2.627-1.138-1.074-.573-1.031-1.89.043-2.527.279-.164.651-.222.988-.236.336-.014.68.129 1.023.136.136.007.329-.129.408-.258a.708.708 0 00.065-.486 1.019 1.019 0 00-.251-.444c-.179-.186-.394-.344-.58-.516-.393-.365-.336-.765.158-.966 3.307-1.36 6.728-2.391 10.164-3.385.086-.022.172-.022.258-.036.357-.065.794.236.708.544-.379 1.36.136 2.376 1.174 3.214.336.272.659.572.973.866.244.229.23.673-.021.937-.537.573-1.102 1.117-1.618 1.711-.515.587-1.03 1.188-1.31 1.94a1.86 1.86 0 00-.014 1.274c.179.508.465.938.888 1.267.544.422 1.109.816 1.675 1.231-.108.322-.143.601-.279.795-.351.501-.781.944-1.117 1.445-.465.695-.53 1.475-.265 2.255.315.916.78 1.761 1.503 2.419 1.382 1.246 1.045 1.597.301 2.613-.15.208-.272.444-.387.68-.415.866-.243 1.682.516 2.355.257.229.537.472.851.594.308.122.673.122 1.017.115.136-.008.329-.151.386-.272.058-.129.036-.38-.057-.473-.358-.372-.773-.687-1.145-1.045-.208-.193-.172-.73.014-.966.329-.43.752-.745 1.26-.888.752-.215 1.525-.351 2.283-.537a.63.63 0 00.501-.529c.058-.322-.214-.644-.601-.716a13.665 13.665 0 00-.773-.107c-2.154-.244-3.393-1.611-4.223-3.458-.186-.422-.122-.859.1-1.259.53-.974 1.36-1.582 2.405-1.883.501-.143 1.031-.157 1.546-.25.358-.058.673-.401.68-.688.007-.343-.257-.694-.587-.744-.429-.064-.873-.086-1.295-.172-1.117-.236-2.176-.615-3.085-1.338-.659-.523-.816-1.432-.337-2.105.201-.286.415-.558.659-.809a7.494 7.494 0 012.348-1.624 13.9 13.9 0 001.166-.58c.351-.193.401-.945.086-1.145-.293-.186-.601-.344-.895-.523-.601-.351-1.224-.673-1.782-1.081-.336-.25-.608-.615-.844-.973-.258-.394-.229-.845.035-1.231a3.41 3.41 0 01.702-.766c1.152-.866 2.469-1.346 3.908-1.203.88.086 1.525-.05 1.968-.859.108-.2.394-.365.623-.422 1.016-.229 2.04-.458 3.078-.608 1.21-.172 2.426-.28 3.636-.387a22.26 22.26 0 011.825-.057c.158 0 .38.086.444.2.065.115.036.358-.05.48-.293.429-.651.816-.945 1.245-.615.895-.472 1.833.415 2.534.544.43 1.153.788 1.725 1.174.315.208.501.487.566.923zm-86.839-4.495c.695.065 1.31.079 1.912.194.765.143 1.524.35 2.276.572 2.419.723 4.81 1.503 7.115 2.556 2.319 1.059 4.509 2.29 6.327 4.072a16.827 16.827 0 003.543 2.642c2.212 1.238 4.259 2.712 6.22 4.309.673.544 1.267 1.188 1.883 1.803.215.215.179.78-.05.959-.759.58-1.525 1.153-2.298 1.711-.422.301-.952.494-1.295.866-1.382 1.518-3.143 2.455-4.918 3.386-1.854.973-3.65 2.033-5.34 3.271-.98.723-1.925 1.503-2.92 2.197-.78.544-1.589 1.081-2.448 1.496-2.126 1.017-4.352 1.768-6.635 2.348-.666.172-1.375.193-2.069.265-1.596.158-2.655-.587-3.307-2.004-.257-.566-.436-1.145-.415-1.761.036-.873.115-1.739.172-2.605.071-1.074.501-2.019 1.109-2.885.301-.429.637-.83.967-1.231.944-1.145 1.925-2.255 2.827-3.429.916-1.195 1.997-2.169 3.343-2.856.458-.236.88-.565 1.252-.923.158-.15.236-.494.179-.709-.057-.214-.3-.486-.501-.529a5.845 5.845 0 00-1.546-.115c-1.596.086-3.114-.236-4.602-.773-2.069-.737-3.959-1.804-5.734-3.078-.487-.351-.895-.83-1.252-1.317-1.067-1.446-1.31-3.557-.029-5.368 1.553-2.198 3.743-3.028 6.234-3.064zm82.616 49.332c-.1 0-.186-.007-.272 0-1.396.071-2.434-1.246-2.055-2.641.115-.423.244-.838.38-1.246a3.784 3.784 0 011.589-2.011c.365-.236.766-.408 1.131-.644.293-.186.565-.408.823-.637.451-.394.479-1.189.057-1.647-.172-.193-.358-.401-.58-.508-1.739-.859-3.478-.988-5.253-.057-1.232.644-2.498 1.231-3.744 1.847a4.75 4.75 0 01-3.042.429c-.959-.172-1.539-.709-1.897-1.582-.3-.73-.186-1.381.337-1.925.901-.938 1.818-1.876 2.777-2.749a7.36 7.36 0 011.718-1.167c1.968-.937 3.879-1.961 5.483-3.471.458-.43 1.045-.601 1.674-.63.952-.05 1.919-.05 2.864-.186a20.338 20.338 0 013.901-.208c1.839.072 3.636-.157 5.447-.486 3.078-.566 6.17-1.038 9.255-1.525.136-.022.365.086.436.208.072.121.043.343-.021.493-.1.237-.258.451-.401.666-1.016 1.518-2.104 2.992-3.042 4.56-1.618 2.712-3.629 5.089-5.812 7.351-.723.751-1.51 1.46-2.126 2.29-1.224 1.639-2.698 2.942-4.509 3.872a3.553 3.553 0 00-.451.265c-1.382 1.031-2.992 1.325-4.667 1.339z" fill="#828282"/><path d="M269.713 131.764c-.157.021-.501.05-.844.1-.566.086-1.203.866-1.246 1.489-.007.086-.021.172 0 .25.179.68.494 1.274.995 1.775.487.48 1.31.602 1.904.237.294-.172.587-.38.809-.63.637-.723.658-1.539.286-2.405-.343-.773-1.016-.816-1.904-.816zm-76.431 12.698c.072.701.344 1.381.938 1.761 1.081.687 2.183 1.388 3.486 1.61.122.022.272-.136.408-.215-.079-.143-.129-.336-.258-.422-.207-.143-.465-.229-.708-.315-.752-.272-1.332-.794-1.919-1.303-.587-.508-.658-1.181-.164-1.854a6.22 6.22 0 011.052-1.123c.537-.43 1.145-.781 1.703-1.181.208-.151.365-.365.537-.551.143-.151.115-.544-.071-.702a1.024 1.024 0 00-.451-.215c-.158-.021-.344.029-.501.093-1.482.623-2.606 1.682-3.544 2.949-.293.43-.501.909-.508 1.468zm-212.917 76.794c-1.19 0-2.379-.013-3.569.006-.591.006-1.183.049-1.775.11-1.476.146-2.952.402-4.435.445-3.288.104-6.49.708-9.68 1.433-2.758.623-5.503 1.282-8.163 2.245-.555.202-1.129.403-1.708.513-2.44.476-4.63 1.58-6.839 2.635-.402.189-.799.403-1.214.555-2.293.867-4.465 2.007-6.692 3.026a40.198 40.198 0 00-4.313 2.324 105.157 105.157 0 01-3.855 2.233c-.519.287-1.08.5-1.629.726-.451.189-.884.116-1.263-.177a19.47 19.47 0 01-1.53-1.293 19.121 19.121 0 00-3.942-2.898c-.585-.323-1.14-.708-1.732-1.006-1.074-.543-1.983-1.288-2.88-2.081-1.897-1.683-3.94-3.147-6.368-4.008-1.891-.671-3.77-1.372-5.704-1.915-1.3-.366-2.61-.561-3.947-.677-2.172-.177-3.904.695-5.35 2.233-.305.323-.518.725-.811 1.061-1.446 1.641-1.098 4.624.299 6.186 1.012 1.134 2.245 1.946 3.599 2.574 1.482.683 2.977 1.342 4.57 1.745.286.073.56.183.84.286.215.08.355.391.233.537-1.373 1.66-2.721 3.337-4.136 4.96-.793.909-1.464 1.873-1.867 3.007-.403 1.135-.427 2.331-.58 3.508-.03.213.013.451.086.659 1.019 2.757 1.574 3.373 4.215 3.465a9.095 9.095 0 001.77-.128c2.433-.421 4.703-1.373 6.935-2.373.806-.36 1.55-.885 2.257-1.422 2.477-1.897 4.997-3.733 7.846-5.063.805-.378 1.543-.891 2.33-1.318 1.043-.567 2.092-1.134 3.16-1.647.488-.238.86-.543 1.165-.988.244-.354.585-.36.97-.098.616.415 1.232.83 1.824 1.281 1.128.873 2.367 1.507 3.727 1.959 1.977.646 3.929 1.36 5.887 2.068 1.83.659 3.752.915 5.63 1.342.8.183 1.587.372 2.361.634.702.238 1.428.421 2.148.568 1.311.268 2.617.579 3.861 1.073.836.336 1.702.506 2.593.61 1.702.201 3.398.372 5.112.354 1.336-.012 2.678.049 4.014.104.44.018.885.116 1.318.207.122.025.323.189.31.262-.024.196-.103.427-.243.549-.28.238-.61.415-.94.592-.713.397-1.446.769-2.16 1.159-1.866 1.025-3.318 2.495-4.501 4.24-.263.39-.311.842-.238 1.287.116.744.39 1.446.89 2.013.232.269.562.519.897.622a7.57 7.57 0 002.867.305 4.32 4.32 0 001.885-.628 35.41 35.41 0 012.343-1.287c.67-.336 1.39-.555 2.153-.464.287.037.561.171.83.281.17.067.256.464.134.58-.104.103-.201.225-.323.298-1.495.964-2.044 2.495-2.434 4.112-.147.604-.012 1.196.31 1.714.233.378.55.702.837 1.043.31.366.726.513 1.195.482.738-.055 1.495-.073 2.215-.213 1.89-.378 1.506.067 3.446-1.379.415-.311.891-.549 1.294-.878.75-.61 1.55-1.184 2.178-1.904 1.909-2.184 3.946-4.239 5.984-6.295.47-.47.86-1.025 1.244-1.568.427-.604.854-1.22 1.202-1.879.94-1.793 2.239-3.324 3.429-4.941.634-.872 1.451-1.507 2.488-1.787 1.092-.293 2.08-.793 3.032-1.379.128-.079.256-.159.39-.214 2.197-.939 4.18-2.238 6.138-3.593 1.897-1.311 3.794-2.605 5.581-4.063a16.177 16.177 0 013.197-2.025c1.982-.945 3.6-2.355 5.045-3.977.146-.165.274-.354.402-.531.202-.281.14-.805-.128-1.025-2.312-1.873-4.636-3.721-7.546-4.63a9.04 9.04 0 01-1.842-.781c-1.312-.744-2.733-1.159-4.179-1.5-.58-.135-1.159-.269-1.732-.428-2.373-.664-4.795-1.018-7.247-1.201-.976-.073-1.873-.281-2.77-.72-1.263-.616-2.61-1.062-3.928-1.562-1.556-.592-2.874-1.537-4.1-2.641-1.214-1.098-2.428-2.19-3.642-3.288a24.029 24.029 0 00-9.65-5.375c-.922-.262-1.812-.671-2.697-1.055-1.684-.732-3.428-.946-5.234-.677-.561.085-.927.402-1.208.878-.817 1.397-.457 2.861.568 3.868.53.518 1.11.982 1.665 1.476.134.116.012.5-.165.555-.213.061-.42.165-.64.177-1.263.098-2.52.171-3.782-.006-.513-.073-1.038-.104-1.556-.165-1.849-.207-3.526.305-5.13 1.178-.781.421-1.208 1.067-1.343 1.934a1.759 1.759 0 00.415 1.451c.19.226.415.44.665.586 1.092.634 2.19 1.263 3.3 1.861.39.207.818.353 1.239.494.915.311 1.836.604 2.757.89.208.061.44.086.653.068.116-.013.268-.141.311-.251.037-.109-.012-.341-.085-.378-.8-.378-1.605-.775-2.434-1.08-1.544-.573-2.965-1.372-4.393-2.171-.256-.141-.481-.354-.683-.562-.22-.225-.25-.53-.164-.829a1.46 1.46 0 01.835-.988c1.513-.671 3.075-1.117 4.758-.83 1.696.287 3.404.311 5.113.238.658-.031 1.323-.171 1.976-.293.207-.043.397-.189.58-.317.408-.287.506-1.062.164-1.391a8.042 8.042 0 00-.854-.708c-.598-.439-1.226-.842-1.805-1.305-.562-.452-.781-1.068-.702-1.788.067-.658.403-1.104 1.104-1.207a5.161 5.161 0 012.63.268 82.66 82.66 0 003.586 1.22c2.782.885 5.405 2.111 7.711 3.904 1.403 1.092 2.733 2.294 4.014 3.532 1.452 1.403 2.934 2.733 4.838 3.508.128.049.226.183.323.293.049.055.116.146.104.189-.049.128-.11.317-.208.342-.354.091-.726.17-1.086.176-1.415.019-2.824.007-4.24.007.02-.025.02-.043.02-.055zm-36.504 9.266c.165.628-.3 1.129-.33 1.726-.03.635.135 1.196.604 1.611.33.287.738.482 1.105.738.237.165.45.366.628.513-.03.494-.317.744-.555 1.018a9.943 9.943 0 00-1.495 2.202c-.524 1.05-.44 1.593.403 2.367.22.202.463.373.689.562.214.189.195.561-.043.774-.22.196-.47.366-.689.568-.805.75-1.263 1.635-1.013 2.775.013.061-.036.135-.067.244-.189.049-.396.147-.61.153-.976.006-1.921-.226-2.837-.525-2.537-.823-5.075-1.659-7.582-2.58-1.77-.653-3.227-1.812-4.453-3.239-.177-.202-.135-.659.06-.812.177-.134.342-.293.531-.396 1.172-.647 2.349-1.275 3.52-1.91.458-.244.958-.439 1.348-.762.757-.629 1.63-1.031 2.483-1.477 1.19-.61 2.41-1.159 3.618-1.72a283.691 283.691 0 013.654-1.647c.348-.152.701-.244 1.074-.122l.042-.085-.085.024zm40.744-7.985c3.087.146 5.685.274 8.284.402.22.013.445.049.665.08 2.946.408 5.85 1.043 8.742 1.732 1.153.275 2.275.671 3.349 1.208.659.329 1.36.598 2.068.824 2.458.774 4.563 2.141 6.472 3.837.348.311.348.817-.012 1.183-.842.842-1.684 1.678-2.751 2.251-.982.525-1.934 1.11-2.916 1.641-.787.427-1.531.909-2.227 1.483-.402.329-.805.658-1.232.951-2.141 1.47-4.295 2.934-6.442 4.392a26.26 26.26 0 01-5.533 2.861c-2.086.775-4.234 1.373-6.363 2.026-.567.171-1.159.28-1.744.372-.806.128-1.63.177-2.428.335-.958.19-1.885.397-2.788-.231-.213-.153-.573-.098-.866-.135-.366-.048-.75-.055-1.098-.152-.66-.183-1.22-.525-1.605-1.123-.146-.231-.085-.64.147-.787.189-.122.366-.262.573-.341.415-.159.848-.25 1.257-.415.207-.085.354-.317.28-.543-.06-.195-.189-.421-.36-.512-.25-.135-.56-.165-.848-.226-.762-.159-1.36-.58-1.842-1.171-.25-.305-.299-.665-.158-1.043.31-.83.945-1.318 1.744-1.605.415-.146.867-.201 1.288-.335.115-.037.2-.196.274-.318.085-.14-.067-.5-.238-.561a72.34 72.34 0 00-1.043-.372c-.702-.244-1.415-.451-2.007-.933-.268-.22-.336-.72-.122-1.001a3.396 3.396 0 011.818-1.22c.287-.079.585-.097.872-.165.269-.061.513-.372.5-.646a.553.553 0 00-.366-.513c-.341-.134-.707-.219-1.061-.323-1.153-.329-2.227-.823-3.203-1.531-.5-.366-.555-1.055-.14-1.574.482-.598 1.092-.988 1.8-1.263a8.19 8.19 0 00.799-.378c.22-.116.232-.671.012-.787a7.387 7.387 0 00-1-.457c-.916-.324-1.83-.635-2.611-1.227-.239-.176-.458-.378-.47-.713-.012-.293.287-.659.677-.787.213-.073.42-.141.64-.195 1.41-.336 2.8-.318 4.173.176.415.147.842.287 1.275.348.159.025.384-.177.518-.329.165-.189.092-.446-.06-.61a2.81 2.81 0 00-.696-.537c-.39-.214-.805-.372-1.208-.561-.055-.025-.103-.104-.122-.165-.042-.177.049-.293.238-.293 2.532-.024 5.057-.024 7.095-.024zm-11.347 6.045c-.128.208-.28.458-.439.708-.165.25-.354.482-.494.738-.604 1.068-.409 2.044.573 2.733.55.384 1.147.689 1.702 1.061.171.116.269.33.409.507-.128.213-.22.421-.354.597-.177.238-.42.428-.58.678-.194.311-.36.646-.487.988-.135.372-.061.762.213 1.037.36.366.781.677 1.171 1.019.208.177.244.579.098.811-.354.561-.762 1.104-1.05 1.702-.31.647-.207 1.318.227 1.897.22.293.512.537.762.805.415.44.415.556.006 1.135-.128.183-.28.348-.402.531a.898.898 0 000 1.043c.2.305.433.604.695.86.372.366.78.683 1.171 1.025.122.11-.006.506-.177.555-.213.055-.427.153-.646.159-1.782.067-3.563.079-5.338.299-.214.024-.488.036-.653-.067-.707-.446-1.397-.257-2.135-.092-.567.128-1.184.092-1.775.085-2.38-.03-4.759-.042-7.132-.128-1.78-.061-3.574-.116-5.294-.64-1.922-.58-3.856-1.117-5.82-1.519-.537-.11-.958-.384-1.147-.94-.128-.378-.464-.555-.787-.75a18.209 18.209 0 01-.94-.592c-.195-.134-.213-.598-.036-.811.14-.171.262-.372.44-.494.298-.214.627-.391.963-.549.464-.226.952-.409 1.415-.647.415-.213.427-.884.037-1.104-.195-.11-.397-.201-.592-.311-.58-.33-1.165-.647-1.726-1.013-.385-.25-.47-.787-.269-1.195.476-.952 1.172-1.715 2.026-2.337.36-.262.725-.506 1.085-.768.171-.129.312-.665.196-.824-.128-.171-.287-.36-.47-.445-.738-.342-1.525-.586-2.239-.97-.915-.488-.878-1.611.037-2.154.238-.14.555-.189.842-.201.286-.012.58.11.872.116.116.006.28-.11.348-.22a.602.602 0 00.055-.415.872.872 0 00-.214-.378c-.152-.158-.336-.293-.494-.439-.336-.311-.287-.653.134-.824 2.819-1.159 5.734-2.037 8.663-2.885.073-.018.146-.018.22-.03.304-.055.676.201.603.463-.323 1.159.116 2.025 1 2.739.287.232.562.488.83.738.208.196.195.574-.018.799-.458.489-.94.952-1.379 1.458-.439.501-.878 1.013-1.116 1.654a1.58 1.58 0 00-.012 1.085c.152.434.396.8.756 1.08.464.36.946.696 1.428 1.049-.092.275-.122.513-.238.678-.3.427-.665.805-.952 1.232-.396.592-.451 1.257-.226 1.922.269.78.665 1.5 1.281 2.061 1.178 1.062.891 1.361.257 2.227a3.823 3.823 0 00-.33.58c-.354.738-.207 1.433.44 2.007.219.195.457.402.725.506.263.104.574.104.867.098.115-.007.28-.129.329-.232.049-.11.03-.324-.049-.403-.305-.317-.659-.586-.976-.891-.177-.164-.146-.622.012-.823.281-.366.64-.635 1.074-.757.64-.183 1.3-.298 1.946-.457a.54.54 0 00.427-.452c.049-.274-.183-.549-.512-.61-.22-.036-.44-.067-.66-.091-1.835-.207-2.89-1.373-3.598-2.946-.159-.36-.104-.733.085-1.074.451-.83 1.16-1.348 2.05-1.605.427-.122.878-.134 1.317-.213.305-.049.574-.342.58-.586.006-.292-.22-.591-.5-.634-.366-.055-.745-.073-1.105-.147-.951-.201-1.854-.524-2.629-1.14-.56-.446-.695-1.22-.286-1.794.17-.244.353-.476.56-.689a6.403 6.403 0 012.002-1.385c.341-.146.67-.317.994-.494.299-.165.342-.805.073-.976-.25-.159-.512-.293-.762-.445-.513-.299-1.043-.574-1.52-.922-.286-.213-.518-.524-.72-.829-.219-.336-.194-.72.031-1.049.165-.238.366-.476.598-.653.982-.738 2.105-1.147 3.331-1.025.75.073 1.3-.043 1.678-.732.091-.171.335-.311.53-.36.867-.195 1.739-.39 2.623-.519 1.031-.146 2.068-.237 3.1-.329a18.792 18.792 0 011.555-.049c.134 0 .323.073.378.171.055.098.03.305-.042.409-.25.366-.556.695-.806 1.061-.524.763-.402 1.562.354 2.16.464.366.982.671 1.47 1 .269.177.427.415.482.787zm-74.009-3.831c.592.055 1.117.067 1.629.165.653.122 1.3.299 1.94.488 2.062.616 4.1 1.281 6.064 2.178 1.976.903 3.843 1.952 5.392 3.471.915.89 1.91 1.629 3.02 2.251 1.885 1.055 3.63 2.312 5.301 3.672.573.464 1.08 1.013 1.604 1.538.183.183.153.664-.042.817-.647.494-1.3.982-1.958 1.458-.36.256-.812.421-1.105.738-1.177 1.293-2.678 2.092-4.19 2.885-1.58.83-3.112 1.733-4.551 2.788-.836.616-1.641 1.281-2.49 1.873-.664.464-1.354.921-2.086 1.275-1.811.866-3.709 1.507-5.655 2.001-.567.146-1.17.165-1.763.226-1.36.134-2.263-.5-2.818-1.708-.22-.482-.372-.976-.354-1.501.031-.744.098-1.482.147-2.221.061-.915.427-1.72.945-2.458.256-.366.543-.708.824-1.049.805-.976 1.64-1.922 2.41-2.922.78-1.019 1.701-1.849 2.848-2.434.39-.202.75-.482 1.068-.787.134-.128.201-.421.152-.604-.049-.183-.256-.415-.427-.452a5.013 5.013 0 00-1.317-.097c-1.36.073-2.654-.202-3.923-.659-1.763-.628-3.373-1.537-4.886-2.623-.415-.299-.763-.708-1.068-1.123-.909-1.232-1.116-3.032-.024-4.575 1.324-1.873 3.19-2.58 5.313-2.611zm70.41 42.044c-.085 0-.159-.007-.232 0-1.19.061-2.074-1.062-1.75-2.251.097-.36.207-.714.323-1.062a3.229 3.229 0 011.354-1.714c.311-.201.653-.348.964-.549.25-.159.482-.348.701-.543.385-.336.41-1.013.05-1.403-.147-.165-.306-.342-.495-.433-1.482-.732-2.965-.842-4.478-.049-1.049.549-2.129 1.049-3.19 1.574a4.041 4.041 0 01-2.593.366c-.817-.147-1.311-.604-1.616-1.348-.257-.623-.159-1.178.286-1.641.77-.799 1.55-1.599 2.367-2.343.433-.39.94-.744 1.465-.994 1.677-.799 3.306-1.672 4.672-2.959.39-.366.89-.512 1.428-.537.811-.042 1.635-.042 2.44-.158a17.33 17.33 0 013.325-.177c1.567.061 3.099-.134 4.642-.415 2.623-.482 5.258-.885 7.888-1.299.115-.019.31.073.372.177.06.103.036.292-.019.42-.085.202-.22.385-.341.568-.866 1.293-1.794 2.55-2.593 3.886-1.379 2.312-3.093 4.337-4.953 6.265-.616.64-1.287 1.244-1.812 1.952-1.043 1.397-2.3 2.507-3.843 3.3a2.94 2.94 0 00-.385.226c-1.177.878-2.55 1.128-3.977 1.141zm10.73-110.951v3.4c0 2.798.501 5.554.759 8.331.079.866.186 1.733.336 2.591.136.766.33 1.532.558 2.284.15.508.494.916.931 1.231.358.25.73.48 1.088.716.945.63 1.925.751 2.963.222.466-.237.967-.408 1.453-.594a5.113 5.113 0 001.94-1.303c2.928-3.114 5.905-6.177 8.303-9.742.73-1.081 1.568-2.097 2.377-3.121.214-.265.486-.515.787-.673.2-.107.53-.128.737-.035.387.179.752.443 1.074.723 1.732 1.474 3.657 2.677 5.547 3.929.143.093.294.201.444.272 3.22 1.546 6.156 3.622 9.384 5.175 2.369 1.131 4.81 2.062 7.258 2.964.895.329 1.86.458 2.799.644 1.367.272 2.755.451 4.1.794 1.447.373 2.9.602 4.382.738 2.168.2 4.344.379 6.513.587.115.014.23.214.315.343.029.043 0 .179-.043.222-.773.701-1.56 1.389-2.319 2.104a2.86 2.86 0 00-.873 1.575c-.322 1.775-.136 3.472.801 5.046.33.559.81.931 1.418 1.088 1.982.523 3.98.48 5.955.007 1.024-.243 1.94-.787 2.741-1.474 1.26-1.074 2.527-2.14 3.758-3.257 1.167-1.059 2.22-2.219 3-3.607.171-.301.371-.594.58-.874 2.075-2.798 1.824-2.376 4.566-3.077.587-.151 1.195-.265 1.754-.502 2.247-.952 4.48-1.932 6.7-2.941.872-.401 1.624-1.017 2.29-1.711a15.2 15.2 0 013.264-2.591c.594-.351 1.123-.823 1.675-1.246.758-.579 1.517-1.174 2.276-1.753 1.11-.852 2.204-1.711 3.328-2.541 1.195-.881 2.42-1.711 3.622-2.577.637-.458 1.295-.895 1.861-1.432a39.088 39.088 0 014.688-3.75c1.826-1.253 2.906-2.957 3.68-4.932.128-.329.007-.694-.223-.981a7.183 7.183 0 00-1.96-1.703c-2.628-1.546-5.254-3.1-7.903-4.617-.68-.387-1.431-.637-2.147-.959-.795-.358-1.604-.687-2.377-1.088a27.73 27.73 0 00-8.911-2.885 72.788 72.788 0 01-4.123-.73 47.854 47.854 0 00-10.644-.973c-.35.007-.708.028-1.045-.036-.329-.065-.758-.143-.944-.38-.931-1.173-2.284-1.853-3.243-3.013a40.757 40.757 0 01-2.52-3.328c-2.419-3.572-7.107-5.669-11.345-5.161-1.202.143-2.147.709-2.941 1.546-.616.651-.953 1.467-.91 2.384.043.959.093 1.911.594 2.784.258.451.444.945.66 1.424.615 1.375 1.46 2.57 2.59 3.572.322.279.601.616.852.959.057.072-.043.387-.143.43-.394.179-.802.358-1.217.415-2.162.286-4.323.529-6.492.78-.695.079-1.389.158-2.083.2a7.532 7.532 0 00-3.221.974c-.601.336-1.26.594-1.904.845-2.677 1.052-5.361 2.082-8.024 3.156a14.45 14.45 0 00-2.09 1.074c-2.527 1.546-5.04 3.113-7.559 4.681-.644.401-2.476 2.119-3.042 2.834a48.439 48.439 0 00-3.7 5.376c-.265.451-.58.866-.874 1.296-.107.157-.544.25-.715.15-.373-.222-.766-.422-1.11-.68-3.607-2.749-7.043-5.705-10.393-8.761-1.668-1.525-3.436-2.949-5.383-4.13-.45-.272-.923-.501-1.467-.494a1.114 1.114 0 00-.895.451c-.05.071-.107.143-.136.222-.902 2.555-1.675 5.146-1.775 7.88-.057 1.74 0 3.486-.007 5.233zm91.405 12.318c-.386.272-.773.644-1.231.852-1.832.809-3.672 1.603-5.547 2.312-.974.365-2.012.558-3.028.802-.68.164-1.382.222-2.047.436-2.19.702-4.452.788-6.714.852-2.963.079-5.927.115-8.883.186-3.063.079-6.091-.293-9.076-.916-2.047-.429-4.08-.895-6.149-1.188a11.265 11.265 0 01-2.269-.58c-1.639-.594-3.25-1.245-4.867-1.882a20.005 20.005 0 01-1.432-.623 89.815 89.815 0 01-7.279-4.102c-.372-.229-.737-.479-1.131-.658-2.641-1.21-4.91-2.978-7.15-4.782-1.41-1.13-1.676-1.181-.609-2.934.673-1.11 1.324-2.233 2.104-3.271.315-.415.637-.838.874-1.303.851-1.704 2.247-2.906 3.793-3.88 2.942-1.868 5.963-3.6 8.969-5.368a20.817 20.817 0 014.796-2.047 47.103 47.103 0 006.614-2.427c.966-.443 1.96-.665 3.013-.78 2.684-.293 5.361-.651 8.045-.973 2.42-.294 4.81-.766 7.273-.723.859.014 1.725-.215 2.576-.387a20.71 20.71 0 014.41-.393c2.44.035 4.874.2 7.308.286 3.063.1 6.055.673 9.054 1.174.509.086 1.002.293 1.49.465.479.172.665.88.35 1.317-.2.279-.408.566-.666.795a50.326 50.326 0 01-2.004 1.675c-.744.594-1.46 1.252-2.283 1.732-1.231.716-2.248 1.632-3.157 2.705-1.746 2.062-3.579 4.045-5.59 5.855-.129.115-.243.251-.38.358-.787.623-1.202 1.468-1.51 2.391-.336 1.002-.444 2.033-.465 3.085-.022 1.102.336 2.054 1.038 2.878.394.465.83.894 1.274 1.309.709.645 1.453 1.253 2.169 1.883a20.683 20.683 0 003.622 2.562c1.288.723 2.533 1.525 3.8 2.305.365.208.738.444.895 1.002zM60.35 155.965c0-.171-.022-.436.007-.694.15-1.517.687-2.806 1.84-3.908 1.89-1.804 3.664-3.715 5.44-5.633 1.13-1.224 2.304-2.377 3.815-3.128a3.03 3.03 0 00.65-.43 22.588 22.588 0 014.002-2.92c.559-.315.86-.838.924-1.496.021-.251.057-.544.2-.723.243-.293.658-.265.98-.165 1.074.344 2.148.702 3.193 1.131 1.21.494 2.383 1.067 3.572 1.597 2.226.987 4.445 2.011 6.556 3.235 1.582.916 3.142 1.868 4.703 2.82a7.81 7.81 0 011.045.78c.458.394.508 1.188.172 1.675-.716 1.017-1.647 1.804-2.656 2.491-1.374.938-2.627 2.011-3.844 3.135-1.216 1.124-2.505 2.162-3.958 2.978-.45.257-.866.58-1.295.88-3.35 2.355-6.328 5.182-9.764 7.43-.43.279-.787.687-1.174 1.031-.264.229-.515.472-.801.673-.294.2-.644.293-.988.121-.93-.465-1.918-.787-2.749-1.474a10.056 10.056 0 00-2.204-1.389c-2.505-1.159-4.38-3.135-6.4-4.91-.851-.752-1.366-1.782-1.266-3.107zM43.607 122.81c1.768.165 3.958.602 5.876 1.969 1.002.716 1.883 1.51 2.563 2.548 1.088 1.675 2.247 3.307 3.679 4.717.057.057.122.165.1.229-.043.15-.1.365-.215.422-.221.108-.493.194-.744.179-2.72-.193-5.376.229-8.017.809-.508.115-1.023.215-1.546.244-.33.014-.716-.036-1.002-.194-1.324-.737-2.39-1.789-3.07-3.113-.674-1.31-1.175-2.713-1.654-4.109-.43-1.26.272-2.677 1.496-3.264.644-.308 1.317-.472 2.534-.437zm9.985 51.816h3.987c.343 0 .601.444.465.751-.615 1.367-1.482 2.556-2.534 3.615-1.167 1.174-2.42 2.248-3.686 3.314-2.169 1.818-4.645 2.248-7.344 1.89-.873-.115-1.625-.816-1.811-1.668-.2-.945-.258-1.904-.093-2.856.072-.415.265-.823.48-1.195.4-.695 1.002-1.196 1.703-1.575a105.907 105.907 0 013.465-1.804c.3-.15.665-.2 1.009-.229 1.388-.093 2.777-.157 4.359-.243zm-72.015-19.648h-.1c0-1.124-.007-2.255.007-3.379.007-.343.057-.687.1-1.031.072-.558.623-.83 1.181-.579.315.143.637.279.924.465 2.92 1.89 5.934 3.586 9.248 4.695.329.108.63.294.937.444 1.017.487 2.047.945 2.914 1.689.236.201.243.652.035.931-.329.437-.766.687-1.28.823-2.27.623-4.603.838-6.937 1.038-1.725.143-3.457.236-5.19.336-.343.022-.7.043-1.03-.05-.215-.057-.472-.272-.551-.472a4.027 4.027 0 01-.25-1.26c-.03-1.224-.008-2.434-.008-3.65zm7.766 6.528c.473-.043.995-.094 1.518-.122 1.045-.065 2.083-.115 3.128-.165.071 0 .2.05.207.093.022.165.08.394 0 .487-.894.952-1.667 2.004-2.462 3.035-.744.973-1.517 1.904-2.54 2.605-.423.294-.774.702-1.139 1.074-.859.866-1.71 1.739-2.577 2.605-.243.244-.515.473-.78.695-.501.415-1.231.179-1.474-.473-.093-.243-.2-.486-.251-.744-.458-2.219-.787-4.459-.923-6.728-.072-1.146.171-1.74 1.517-1.997.68-.129 1.382-.201 2.076-.237 1.21-.078 2.433-.093 3.7-.128zm-5.59-17.43c.194.043.473.036.687.151 1.367.765 2.599 1.71 3.801 2.712 3.07 2.541 5.798 5.469 8.998 7.86.064.05.15.121.164.193.036.143.043.301.036.451 0 .021-.15.071-.208.05-1.84-.759-3.679-1.517-5.511-2.298a35.735 35.735 0 01-2.591-1.216c-1.382-.723-2.77-1.482-3.88-2.592-.637-.637-1.331-1.088-2.162-1.374a1.131 1.131 0 01-.436-.265c-.115-.121-.222-.293-.23-.451-.078-1.174.28-2.204 1.032-3.106.05-.057.157-.065.3-.115zm14.065 17.186c-.043.158-.057.329-.143.465-2.305 3.601-5.182 6.714-8.253 9.663-.25.237-.522.466-.823.63a3.307 3.307 0 01-.966.337c-.122.028-.3-.115-.423-.215-.043-.036-.043-.179-.007-.251.158-.3.28-.651.516-.873.88-.837 1.796-1.632 2.705-2.433.98-.859 1.94-1.747 2.677-2.828 1.188-1.732 2.77-3.092 4.266-4.531a.345.345 0 01.237-.071c.071.007.143.071.214.107z" fill="#828282"/><path d="M79.26 143.289c-.244.079-.509.122-.723.243-.816.459-1.253 1.167-1.267 2.105-.007.644.243 1.181.787 1.546 1.131.751 2.312.837 3.107-.945.494-1.109-.008-2.298-1.138-2.777-.237-.093-.501-.115-.766-.172zm5.04-57.256c3.901-.3 7.666-1.21 11.417-2.261 2.054-.573 3.98-1.432 5.755-2.627 1.825-1.232 3.743-2.327 5.676-3.393 3.092-1.704 6.12-3.522 8.89-5.748.687-.551 1.431-1.038 2.147-1.553 1.439-1.024 2.899-2.019 4.309-3.078.916-.687 1.818-1.396 2.828-1.961.372-.208.758-.501.987-.852.48-.737 1.124-1.03 1.976-1.124 1.138-.121 2.262-.343 3.393-.55 3.736-.674 7.472-1.354 11.202-2.048a3677.463 3677.463 0 0017.701-3.321c2.083-.394 4.144-.895 6.263-1.074.608-.05 1.21-.265 1.804-.415 2.734-.709 5.475-1.41 8.138-2.334 1.825-.637 3.593-1.474 5.333-2.333 2.863-1.41 5.475-3.235 8.038-5.118 1.775-1.31 3.486-2.713 5.232-4.051.916-.702 1.718-1.518 2.463-2.398.622-.744 1.295-1.446 1.939-2.169.179-.2.194-.766.058-1.01-.473-.865-1.138-1.574-1.89-2.19-1.575-1.28-3.164-2.547-4.746-3.822-.687-.55-1.367-1.11-2.054-1.667-1.997-1.618-4.152-2.985-6.378-4.26-2.397-1.366-4.953-2.297-7.615-2.998-.845-.222-1.811-.272-2.448-.924-.587-.601-1.16-.615-1.912-.508-.587.086-1.238-.05-1.818-.229-2.448-.766-4.974-1.203-7.458-1.804-2.763-.673-5.555-.945-8.36-1.295-5.183-.645-10.379-.945-15.59-1.138-.179-.008-.358 0-.53-.022-2.82-.415-5.633-.165-8.46-.036-1.854.079-3.708.036-5.562.058-.794.007-1.589.035-2.383.085-.909.058-1.797.086-2.248-.937-.387-.2-.759-.437-1.16-.594-1.309-.523-2.634-1.01-3.951-1.532-.408-.165-.787-.387-1.188-.58-.709-.35-1.417-.716-2.14-1.045-1.045-.465-2.112-.902-3.164-1.346-.487-.207-.966-.443-1.467-.615-1.918-.666-3.851-1.274-5.755-1.976-1.99-.73-3.994-1.417-5.905-2.347-2.642-1.296-5.462-2.005-8.368-2.384-1.138-.15-2.29-.272-3.4-.544C80.807 1.199 77.658.813 74.523.29c-2.742-.465-5.455-.358-8.16.23-.602.128-1.189.328-1.782.507-.609.186-1.089.566-1.518 1.024-1.03 1.095-1.074 1.775-.172 3.035 1.224 1.703 2.906 2.827 4.767 3.693 2.32 1.081 4.682 2.076 7.022 3.114a34.112 34.112 0 004.996 1.74c2.9.78 5.777 1.646 8.547 2.826 1.21.516 2.462.988 3.5 1.847.121.1.229.315.207.458-.021.136-.193.315-.336.358-1.188.33-2.37.723-3.579.938-4.18.723-8.317 1.618-12.462 2.512-2.677.58-5.375 1.024-7.973 1.912-2.391.228-4.61 1.18-6.958 1.617-2.09.387-4.08 1.138-6.07 1.868-2.984 1.095-5.955 2.212-8.94 3.307-3.729 1.36-7.444 2.77-11.109 4.295-1.546.644-3.113 1.253-4.666 1.875-2.792 1.124-5.455 2.498-8.032 4.059-1.13.68-2.319 1.28-3.5 1.86-1.746.86-3.528 1.626-5.16 2.7a4.69 4.69 0 01-.945.479c-1.174.444-2.212 1.073-3.05 2.033-.286.322-.672.58-1.052.794-.3.172-.651.294-.995.315-.615.036-1.23-.021-1.854-.029-.465-.007-.894-.15-1.195-.48-1.052-1.13-2.412-1.753-3.765-2.404-.952-.458-1.918-.91-2.813-1.475-2.033-1.28-4.23-2.19-6.492-2.956-.336-.114-.68-.2-1.002-.343-2.512-1.139-5.211-1.64-7.874-2.262-1.91-.451-3.679-.079-5.375.816-.93.494-1.289 1.532-.895 2.49.701 1.718 1.804 3.021 3.65 3.572.76.222 1.504.523 2.284.688 3.887.823 7.702 1.94 11.638 2.533 1.654.25 3.272.738 4.925 1.045 1.124.208 2.276.272 3.407.423.15.021.294.157.422.257.122.093-.014.537-.214.71-.2.17-.387.364-.602.514a9.04 9.04 0 01-.894.573c-1.482.837-2.727 1.961-3.801 3.264a12.48 12.48 0 01-2.298 2.176c-2.297 1.682-4.166 3.815-6.127 5.848-.594.615-.959 1.474-1.353 2.255-.486.98-.558 2.032-.293 3.099.129.515.222 1.045.422 1.525.13.307.387.622.666.787.952.551 1.983.73 3.056.336.25-.093.501-.171.738-.293 2.054-1.024 4.08-2.105 5.962-3.436a7.1 7.1 0 001.983-2.097c1.617-2.634 3.15-5.318 4.395-8.153.25-.565.465-1.145.751-1.696.401-.78.616-1.754 1.403-2.198.666-.372 1.489-.48 2.255-.658.336-.079.708-.1 1.045-.05 1.832.257 3.665.536 5.49.837 1.31.222 2.577.594 3.8 1.117 2.277.98 4.617 1.71 7.073 2.169 1.904.35 3.757.987 5.604 1.567a35.42 35.42 0 004.631 1.11c4.968.851 9.964 1.481 14.974 1.904 3.257.279 6.492.715 9.742.995 5.633.493 11.266.908 16.935.658 3.708-.165 7.416.107 11.124.28 2.562.12 5.118.192 7.68.157 1.582-.022 3.178-.086 4.746.214.214.043.307.18.272.387-.015.079-.029.186-.079.229-.265.229-.523.48-.823.651-.845.48-1.69.974-2.57 1.375-2.34 1.073-4.538 2.369-6.564 3.965-.622.494-1.31.895-1.954 1.367-1.216.895-2.505 1.66-3.915 2.205-1.933.751-3.529 1.975-4.975 3.443-.63.637-1.174 1.324-1.56 2.126-.537 1.123-.494 2.226.258 3.25.257.35.572.672.88.987a3.348 3.348 0 002.37 1.023c.672.022 1.288-.028 1.903-.05zM22.206 49.071c-.164.2-.293.458-.5.594-.366.236-.781.415-1.182.587-.644.286-1.303.536-1.94.83-.1.043-.121.272-.157.415-.007.029.15.136.208.114 1.531-.422 3.056-.851 4.588-1.28.852-.237 1.718-.416 2.612-.337 3 .265 5.998.1 9.005.05 1.675-.029 3.342.079 5.01.394 3.73.694 7.48 1.302 11.216 1.96 2.176.38 4.331.831 6.435 1.533 1.597.53 3.236.894 4.904 1.11.436.056.88.107 1.302.221 2.749.737 5.583.902 8.382 1.195 4.037.43 8.074.866 12.097 1.446 2.269.322 4.566.594 6.857.644 4.416.1 8.833.093 13.249 0 4.588-.1 9.176-.379 13.772-.314 2.734.035 5.468-.058 8.188-.473 2.004-.308 4.037-.444 6.063-.63 2.813-.258 5.633-.45 8.446-.737 2.018-.208 4.044-.437 6.041-.795a265.09 265.09 0 0014.001-2.891c.515-.122 1.023-.287 1.546-.358 1.059-.143 2.061-.487 3.049-.873.902-.351 1.804-.716 2.706-1.081 1.646-.68 3.164-1.575 4.481-2.785 2.233-2.054 2.125-1.81 3.178.838.257.651.615 1.267.916 1.904.15.315.279.644.394.98.1.287-.058.53-.265.688-.28.2-.594.386-.917.508-2.319.859-4.702 1.51-7.107 2.097-2.405.594-4.846.966-7.287 1.346-2.613.408-5.189 1.052-7.809 1.453-2.09.322-4.202.558-6.249 1.13-.508.144-1.038.194-1.56.287-2.434.43-4.875.852-7.308 1.288-2.606.466-5.211.93-7.809 1.439-2.785.544-5.598.759-8.425.902-1.324.064-2.649.1-3.973.186-3.7.229-7.401.515-11.109.694-4.674.222-9.362.265-14.043.194-2.914-.043-5.834-.08-8.74-.265a91.695 91.695 0 00-7.68-.18c-2.913.065-5.834.151-8.74-.135-2.899-.286-5.798-.616-8.697-.923-1.846-.194-3.686-.38-5.533-.559-1.846-.179-3.693-.33-5.54-.515-1.582-.158-3.156-.365-4.738-.516-2.992-.279-5.963-.737-8.912-1.288-.952-.179-1.882-.465-2.82-.716-2.477-.651-4.903-1.481-7.43-1.932-1.038-.187-2.047-.516-3.042-.902-2.799-1.081-5.611-2.133-8.604-2.591a.704.704 0 01-.243-.086c-.072-.043-.193-.136-.186-.18.036-.15.079-.371.193-.429 1.969-1.016 4.109-1.596 6.177-2.355 1.16-.422 2.32-.873 3.594-.873.071-.028.143-.064.222-.079.043-.014.1 0 .15 0-.143.036-.294.043-.437.05zm-5.669-3.128c3.085-1.89 6.357-3.45 9.506-5.233 3.3-1.875 6.814-3.343 10.35-4.717 3.05-1.18 6.091-2.37 9.162-3.486 3.815-1.388 7.666-2.691 11.481-4.08 3-1.095 6.12-1.703 9.184-2.533 1.79-.487 3.6-.88 5.41-1.253 5.448-1.124 10.91-2.169 16.35-3.336 4.838-1.038 9.72-1.79 14.637-2.383 1.224-.15 2.455-.322 3.686-.422 3.078-.251 6.163-.459 9.248-.688.437-.035.881-.085 1.317-.136 4.388-.458 8.776-1.052 13.206-.823.265.014.53-.007.795-.014 3.536-.143 7.065-.05 10.593.193 4.052.28 8.103.551 12.154.845.616.043 1.224.172 1.833.243 2.104.25 4.166.759 6.256 1.117 2.791.472 5.54 1.116 8.26 1.86 2.584.702 2.29.623 1.968 3.057-.021.172-.05.35-.093.523-.122.558-.444.988-.959 1.18-1.646.63-3.228 1.425-5.003 1.669-1.489.207-2.971.422-4.445.715-2.692.53-5.39.93-8.139.91-.88-.008-1.768.028-2.648.114-4.044.415-8.096.637-12.147.895-1.231.078-2.462.229-3.693.322-.881.071-1.761.128-2.642.15-4.058.071-8.116.172-12.175.437-3.965.25-7.938.329-11.896.672-2.463.208-4.932.344-7.394.602-3.951.415-7.888.944-11.854 1.238-3.428.258-6.821.952-10.278.96-.437 0-.873.1-1.317.157l-7.358.88c-.437.05-.88.093-1.317.15-2.012.272-4.016.587-6.035.81-3.156.35-6.32.68-9.455 1.209-2.52.43-5.046.866-7.559 1.317-3.214.58-6.413 1.21-9.627 1.768-2.44.422-4.846.98-7.208 1.71-3.206.988-6.392 2.033-9.591 3.043-.845.264-1.704.494-2.591.315l.021.143.007-.1zM171.84 31.162c.057 1.617.072 2.684.136 3.736.057.973-.315 1.725-1.088 2.276-.572.408-1.152.816-1.782 1.138-1.253.652-2.541 1.232-3.815 1.847-.802.387-1.647.623-2.491.866-3.321.96-6.757 1.324-10.136 1.961-3.221.602-6.499.637-9.749 1.031a108.02 108.02 0 01-6.069.537c-2.642.172-5.297.243-7.938.4-7.852.473-15.712.545-23.571.573-1.589.008-3.178-.136-4.76-.214-.53-.029-1.06-.072-1.589-.093-2.82-.108-5.647-.2-8.468-.33-2.913-.129-5.819-.293-8.732-.436-.88-.043-1.775.007-2.648-.122-2.642-.386-5.29-.243-7.939-.229-1.674.007-3.35.107-5.024.15-1.325.029-2.649.036-3.973.05-1.06.015-2.119.05-3.178.036-4.681-.071-9.362-.078-14.037.222-3.965.25-7.916.68-11.881.966-1.854.136-3.694.416-5.505.773a71.696 71.696 0 00-13.163 3.973c-1.632.673-3.278 1.31-4.917 1.961-.509.2-1.024.272-1.554.136-.157-.043-.372-.129-.415-.25-.043-.122.043-.351.15-.458.187-.18.416-.337.652-.444 1.374-.601 2.741-1.231 4.137-1.761 2.39-.91 4.839-1.675 7.208-2.641 2.219-.902 4.53-1.482 6.786-2.255 3.428-1.174 6.921-2.14 10.486-2.806 3.815-.716 7.63-1.474 11.467-2.076 4.101-.644 8.188-1.36 12.325-1.775a326.89 326.89 0 0010.265-1.188c5.168-.68 10.35-1.174 15.525-1.775 3.944-.465 7.916-.737 11.875-1.117 1.403-.136 2.806-.357 4.216-.45 3.085-.194 6.141-.724 9.248-.68.701.007 1.41-.108 2.111-.158 1.496-.114 2.992-.265 4.495-.322 4.323-.158 8.654-.236 12.977-.415 5.297-.222 10.58-.594 15.862-1.017 3.164-.25 6.335-.53 9.52-.558.794-.007 1.589-.107 2.369-.229 1.661-.258 3.307-.608 4.968-.83 2.197-.301 4.33-.816 6.363-1.711.157-.072.343-.079.515-.115.179-.043.573.23.601.423.058.343.144.687.151 1.038.028.98.014 1.954.014 2.362zM33.072 48.727v.036c-.88.035-1.775-.008-2.641.136-1.69.279-3.336.014-4.997-.215-.071-.007-.2-.136-.193-.165.065-.143.129-.358.244-.386a45.355 45.355 0 018.575-1.582c3.428-.294 6.864-.566 10.3-.816 1.932-.143 3.872-.258 5.812-.308 1.94-.057 3.887.014 5.826-.036 4.503-.1 9.005.058 13.507-.207 1.675-.1 3.357-.079 5.032-.007 5.554.229 11.109.493 16.663.773 2.47.121 4.932.415 7.401.465a653.57 653.57 0 0015.891.143c5.647-.021 11.302-.007 16.942-.45a14.56 14.56 0 011.589-.058c2.305.057 4.581-.208 6.872-.394.53-.043 1.052-.129 1.582-.15 3.357-.15 6.678-.573 9.999-1.038 2.713-.38 5.419-.78 8.11-1.26 3.221-.572 6.385-1.367 9.248-3.056.3-.18.623-.33.945-.48 2.326-1.116 2.383-1.646 3.142 1.189.179.672.515 1.31.809 1.954.322.708.293 1.33-.258 1.947-1.496 1.66-3.207 3.042-5.247 3.965-2.49 1.124-4.981 2.276-7.744 2.641-.874.115-1.725.38-2.584.573-3.193.694-6.378 1.417-9.577 2.068-1.725.351-3.472.659-5.226.86-2.541.286-5.103.436-7.651.672-3.429.322-6.85.687-10.279 1.002-2.72.25-5.433.652-8.181.573-2.119-.065-4.238-.014-6.356.014-6.092.072-12.183.172-18.274.23-2.649.02-5.29-.13-7.917-.538-3.93-.615-7.888-.966-11.846-1.288-.88-.072-1.76-.165-2.627-.3a482.652 482.652 0 01-8.353-1.39c-1.303-.228-2.598-.529-3.83-1.037-2.633-1.095-5.425-1.532-8.23-1.897a94.52 94.52 0 01-4.71-.694 96.94 96.94 0 01-4.918-1.053 16.462 16.462 0 00-4.467-.422c-.794.014-1.589-.014-2.383-.014zm61.27-30.034c-1.037-1.31-1.03-1.339-1.875-1.732-1.281-.595-2.548-1.224-3.872-1.704-2.062-.752-4.173-1.374-6.256-2.069-2.176-.723-4.373-1.381-6.5-2.233-1.137-.458-2.254-1.002-3.42-1.367-1.955-.608-3.709-1.64-5.505-2.562-1.03-.53-1.868-1.317-2.52-2.29-.522-.781-.322-1.826.501-2.299a5.348 5.348 0 011.46-.572c3.315-.766 6.65-.709 9.986-.136 3.3.565 6.563 1.324 9.892 1.753 2.813.358 5.54 1.045 8.131 2.22.566.25 1.131.493 1.71.7 3.644 1.34 7.302 2.635 10.924 4.016a68.773 68.773 0 015.819 2.527c1.346.659 2.648 1.396 4.058 1.918.458.172 1.21.322 1.146.902-.086.81-.931.645-1.496.702-2.105.222-4.223.322-6.314.608-2.97.408-5.998.215-8.932.88-.172.036-.351 0-.53.022-1.138.136-2.276.28-3.407.408-.967.107-1.933.2-3 .308zm78.701 12.211c.121-2.362.222-4.388.343-6.406.022-.35.115-.695.201-1.038.164-.687.715-1.088 1.367-.916 1.703.45 3.407.887 5.075 1.438 2.612.86 4.939 2.305 7.265 3.744 3.457 2.14 6.571 4.738 9.749 7.258.408.322.744.744 1.102 1.13.236.259.272.731.086.982-1.539 2.054-3.2 3.98-5.318 5.468-2.09 1.467-4.159 2.97-6.256 4.43-2.026 1.418-4.209 2.57-6.442 3.63-.909.43-1.367.257-2.055-.587-.565-.694-.93-1.51-1.166-2.355-.594-2.133-1.417-4.166-2.298-6.184a9.417 9.417 0 01-.816-3.315c-.05-.873-.25-1.739-.351-2.62-.186-1.667-.35-3.335-.486-4.659zm-58.802 33.441c.415-.043.766-.093 1.117-.114 2.111-.108 4.23-.215 6.342-.294.336-.014.694.093 1.016.215.115.043.236.33.193.437-.121.314-.264.687-.515.887a80.146 80.146 0 01-3.149 2.405c-1.496 1.088-3.071 2.076-4.517 3.228-2.777 2.212-5.798 4.016-8.919 5.67a46.529 46.529 0 00-3.865 2.283c-.587.386-1.195.751-1.768 1.166-.938.688-1.983 1.124-3.063 1.532-3.314 1.26-6.772 1.99-10.243 2.613-1.382.25-2.806.293-4.209.308-1.195.014-1.954-.773-2.398-1.797-.38-.859-.243-1.74.35-2.498 1.39-1.76 3.079-3.192 5.147-4.044 2.062-.852 3.916-2.004 5.67-3.35.35-.272.708-.523 1.073-.773 1.446-1.017 2.935-1.94 4.531-2.706 1.904-.916 3.751-1.961 5.612-2.963.465-.25.959-.494 1.331-.852.759-.723 1.668-.93 2.663-.973 2.555-.115 5.11-.25 7.601-.38zm-126.45 4.846c-.028-1.038.036-1.346.358-2.04.451-.966.988-1.86 1.769-2.605.637-.609 1.266-1.232 1.832-1.904 1.03-1.224 2.219-2.255 3.529-3.157 1.023-.701 1.947-1.503 2.72-2.484.665-.837 1.46-1.517 2.419-2.004.952-.48 1.76-1.16 2.548-1.868.458-.415.923-.816 1.41-1.195.129-.1.315-.136.48-.18.079-.02.215-.02.25.03.1.128.258.329.215.422-.902 1.904-1.925 3.743-2.691 5.711-1.16 2.964-2.85 5.648-4.56 8.318-.322.508-.751 1.01-1.252 1.331a122.402 122.402 0 01-5.39 3.329c-.516.3-1.138.458-1.733.6-.68.165-1.481-.35-1.646-1.008-.143-.501-.207-1.024-.257-1.296zm-6.678-28.166c.523.05 1.053.072 1.575.143a23.48 23.48 0 015.34 1.439c.98.394 1.961.816 2.977 1.066 1.39.344 2.663.924 3.887 1.618 2.069 1.174 4.116 2.377 6.292 3.336.386.171.73.472 1.052.758.086.08.05.323.043.48-.007.064-.093.143-.157.172-.165.064-.33.107-.502.143-.894.179-1.746-.043-2.605-.236-2.233-.494-4.474-.952-6.707-1.46a773.88 773.88 0 01-10.536-2.463c-.845-.207-1.668-.558-2.462-.923-.824-.387-1.396-1.045-1.74-1.904-.164-.408-.028-.945.315-1.181.966-.687 2.04-.988 3.228-.988z" fill="#828282"/><path d="M30.173 52.907c-.759-.007-1.367.25-1.775.917-.28.465-.23 1.116.114 1.46.573.565 1.224.98 1.997 1.21.609.178 1.21.114 1.783-.165.665-.322 1.066-1.332.758-2.019-.1-.229-.25-.472-.45-.623-.71-.558-1.511-.873-2.427-.78zm19.025 6.306c.058-.007.337-.014.566-.115.78-.358 1.36-1.23.759-2.154-.523-.802-1.246-1.21-2.205-1.188a1.6 1.6 0 00-1.582 1.46 1.35 1.35 0 00.129.752c.45.844 1.13 1.33 2.333 1.245zm8.647-1.976c-.687-.043-1.403.401-1.668 1.045a1.025 1.025 0 00-.078.25c-.208 1.34 1.202 2.606 2.505 2.248.572-.157 1.123-.973 1.11-1.639-.037-.923-.938-1.846-1.869-1.904zm-19.684-.68c.043.186.064.459.165.695.214.53.637.83 1.202.88.258.022.53.014.78-.043.702-.157 1.41-.38 1.575-1.195.158-.795-.394-1.303-.938-1.761a1.666 1.666 0 00-.458-.25c-.937-.38-2.383.007-2.326 1.674zm148.095-19.941c.021-.537-.057-1.045-.465-1.439-.308-.3-.616-.623-.981-.852-.186-.114-.522-.129-.723-.043-.959.415-1.524 1.131-1.482 2.226.029.745.58 1.375 1.275 1.41.429.022.866.022 1.302-.021.602-.064 1.045-.616 1.074-1.281z" fill="#828282"/><path d="M121.566 251.959c2.067-.159 4.062-.641 6.049-1.198a10.454 10.454 0 003.05-1.392c.967-.652 1.983-1.233 3.007-1.798 1.638-.902 3.243-1.866 4.71-3.045.364-.292.759-.55 1.138-.823.762-.542 1.536-1.07 2.283-1.631.486-.364.964-.739 1.498-1.039.197-.11.402-.266.524-.451.254-.391.595-.547 1.046-.596.603-.064 1.199-.182 1.798-.292a968.87 968.87 0 005.935-1.085c3.129-.58 6.254-1.164 9.379-1.759 1.104-.209 2.196-.474 3.319-.569.322-.027.641-.14.955-.22 1.449-.376 2.902-.747 4.312-1.236.967-.338 1.904-.782 2.826-1.237 1.517-.747 2.901-1.714 4.259-2.711.94-.694 1.847-1.438 2.772-2.147.486-.372.91-.804 1.305-1.27.33-.395.686-.767 1.027-1.15.095-.106.103-.405.031-.534-.25-.459-.603-.835-1.001-1.161-.835-.679-1.677-1.35-2.515-2.025-.364-.292-.724-.588-1.088-.884-1.058-.857-2.2-1.581-3.379-2.256-1.271-.725-2.625-1.218-4.036-1.589-.447-.118-.959-.144-1.297-.49-.311-.318-.614-.326-1.012-.269-.311.046-.656-.026-.964-.121-1.297-.406-2.635-.637-3.951-.956-1.464-.356-2.943-.5-4.43-.686-2.746-.342-5.499-.501-8.26-.603-.095-.004-.19 0-.281-.012-1.494-.22-2.984-.087-4.482-.019-.983.042-1.965.019-2.947.031-.421.003-.842.019-1.263.045-.482.031-.952.046-1.191-.497-.205-.106-.402-.231-.614-.314-.694-.277-1.396-.535-2.094-.812-.216-.087-.417-.205-.629-.307-.376-.186-.751-.379-1.134-.554-.554-.246-1.119-.478-1.677-.713-.258-.11-.512-.235-.777-.326-1.016-.353-2.04-.675-3.049-1.047-1.055-.387-2.116-.751-3.129-1.244-1.4-.686-2.894-1.062-4.434-1.263-.603-.079-1.213-.144-1.801-.288-1.638-.406-3.307-.61-4.968-.887-1.453-.247-2.89-.19-4.324.121-.318.068-.629.175-.944.269-.322.099-.576.3-.804.543-.546.58-.569.94-.091 1.608.649.902 1.54 1.498 2.526 1.957 1.229.572 2.48 1.099 3.72 1.649.857.38 1.741.679 2.647.922 1.536.413 3.061.872 4.529 1.498.641.273 1.304.523 1.854.978.065.054.122.167.11.243-.011.072-.102.167-.178.19-.63.174-1.255.383-1.896.497-2.215.383-4.407.857-6.603 1.331-1.418.307-2.848.542-4.225 1.012-1.267.122-2.442.626-3.686.857-1.108.205-2.162.603-3.216.99-1.582.581-3.156 1.172-4.737 1.752a141.974 141.974 0 00-5.886 2.276c-.82.341-1.65.664-2.473.994a29.37 29.37 0 00-4.255 2.15c-.6.36-1.229.679-1.854.986-.926.455-1.87.861-2.735 1.43a2.533 2.533 0 01-.5.254c-.622.235-1.172.569-1.616 1.077a2.177 2.177 0 01-.558.421 1.254 1.254 0 01-.527.167c-.326.019-.652-.012-.982-.015-.246-.004-.474-.08-.633-.254-.558-.6-1.278-.93-1.995-1.275-.505-.243-1.017-.481-1.49-.781-1.078-.679-2.242-1.161-3.44-1.566-.179-.061-.36-.107-.531-.182-1.332-.603-2.761-.869-4.172-1.199-1.013-.239-1.95-.042-2.848.433a1.02 1.02 0 00-.474 1.319c.371.911.955 1.601 1.934 1.893.402.117.796.277 1.21.364 2.059.436 4.08 1.028 6.166 1.342.876.133 1.733.391 2.61.554.595.11 1.206.144 1.805.224.08.011.155.083.223.136.065.05-.007.285-.113.376-.106.091-.205.193-.319.273-.152.11-.31.212-.474.303-.785.444-1.445 1.039-2.014 1.73a6.62 6.62 0 01-1.217 1.153c-1.218.891-2.207 2.021-3.247 3.098-.314.326-.508.781-.716 1.195-.258.519-.296 1.077-.156 1.642.068.273.118.554.224.808.068.163.205.33.353.417.504.292 1.05.387 1.619.178.133-.049.266-.091.39-.155 1.09-.543 2.162-1.115 3.16-1.821a3.754 3.754 0 001.05-1.111c.857-1.396 1.669-2.818 2.329-4.32.133-.299.246-.606.398-.898.213-.414.326-.93.743-1.165.353-.197.79-.254 1.195-.349a1.52 1.52 0 01.554-.026c.97.136 1.942.284 2.909.444a8.857 8.857 0 012.013.591c1.207.52 2.447.907 3.748 1.149 1.008.186 1.99.524 2.969.831a18.8 18.8 0 002.454.588c2.632.451 5.279.785 7.934 1.008 1.725.148 3.439.38 5.161.528 2.985.261 5.97.481 8.973.349 1.965-.088 3.929.056 5.894.147 1.358.065 2.712.103 4.069.084.838-.012 1.684-.046 2.515.114.113.022.163.094.144.204-.008.042-.015.099-.042.122-.14.121-.277.254-.436.345-.448.254-.895.516-1.362.728a17.069 17.069 0 00-3.477 2.101c-.33.262-.694.474-1.036.725-.644.474-1.327.879-2.074 1.168-1.024.398-1.87 1.046-2.636 1.824-.334.337-.622.701-.827 1.126-.284.596-.261 1.18.137 1.722.136.186.303.356.466.523.345.349.77.531 1.256.543.356.011.682-.016 1.008-.027zm-32.9-19.584c-.087.106-.155.242-.265.314a4.1 4.1 0 01-.626.311c-.341.152-.69.285-1.028.44-.053.023-.064.144-.083.22-.004.015.08.072.11.061.812-.224 1.62-.451 2.431-.679.451-.125.91-.22 1.384-.178 1.59.14 3.178.053 4.771.026.888-.015 1.771.042 2.655.209 1.976.368 3.963.69 5.943 1.039 1.153.201 2.294.44 3.409.812.846.28 1.715.474 2.598.588.232.03.467.056.69.117 1.457.391 2.959.478 4.441.633 2.139.228 4.278.459 6.41.767 1.202.17 2.419.314 3.633.341 2.34.053 4.68.049 7.02 0 2.431-.053 4.862-.201 7.297-.167 1.448.019 2.897-.03 4.338-.25 1.062-.163 2.139-.235 3.213-.334 1.49-.137 2.984-.239 4.475-.391 1.069-.11 2.142-.231 3.201-.421 2.487-.443 4.96-.955 7.418-1.532.273-.064.542-.151.819-.189.561-.076 1.092-.258 1.615-.463.478-.186.956-.379 1.434-.573.872-.36 1.676-.834 2.374-1.475 1.183-1.089 1.127-.96 1.684.444.137.345.326.671.486 1.008.079.167.147.342.208.52.053.152-.03.281-.14.364a2.157 2.157 0 01-.486.269c-1.228.455-2.491.801-3.766 1.112-1.274.314-2.567.512-3.86.713-1.385.216-2.75.557-4.138.769-1.107.171-2.226.296-3.311.6-.269.076-.55.102-.827.151-1.289.228-2.582.452-3.872.683-1.38.247-2.761.493-4.137.762-1.476.289-2.966.402-4.464.478-.702.034-1.403.053-2.105.099-1.961.121-3.921.273-5.886.368-2.477.117-4.961.14-7.441.102-1.543-.023-3.091-.042-4.631-.14a48.463 48.463 0 00-4.069-.095c-1.543.034-3.091.08-4.631-.072-1.536-.152-3.072-.326-4.607-.489-.979-.103-1.954-.201-2.932-.296-.979-.095-1.957-.175-2.935-.273-.839-.084-1.673-.194-2.511-.273a52.081 52.081 0 01-4.722-.683c-.504-.095-.997-.246-1.494-.379-1.312-.345-2.598-.785-3.937-1.024a8.735 8.735 0 01-1.611-.478c-1.483-.573-2.974-1.13-4.559-1.373a.376.376 0 01-.129-.045c-.038-.023-.102-.072-.099-.095.02-.08.042-.197.103-.228 1.043-.538 2.177-.846 3.273-1.248.614-.223 1.228-.462 1.904-.462.038-.015.075-.034.117-.042.023-.008.053 0 .08 0-.076.019-.156.023-.232.027zm-3.003-1.658c1.634-1.001 3.368-1.828 5.036-2.772 1.749-.994 3.61-1.771 5.484-2.499 1.616-.626 3.228-1.256 4.855-1.847 2.021-.736 4.061-1.426 6.083-2.162 1.589-.58 3.242-.903 4.866-1.342a46.473 46.473 0 012.867-.664c2.886-.596 5.779-1.149 8.662-1.768 2.564-.549 5.15-.948 7.755-1.262.649-.08 1.301-.171 1.954-.224 1.63-.133 3.265-.243 4.9-.364.231-.019.466-.046.697-.072 2.325-.243 4.65-.558 6.997-.436.141.007.281-.004.421-.008a51.27 51.27 0 015.613.102c2.147.148 4.293.292 6.44.448.326.023.649.091.971.129 1.115.133 2.207.402 3.315.591 1.479.251 2.935.592 4.376.987 1.369.371 1.214.329 1.043 1.619a2.234 2.234 0 01-.049.277c-.065.296-.235.523-.508.626-.873.333-1.711.754-2.651.883-.789.11-1.574.224-2.356.379-1.426.281-2.855.493-4.312.482a13.18 13.18 0 00-1.403.061c-2.143.22-4.289.337-6.436.474-.652.042-1.304.121-1.957.17-.466.038-.933.069-1.399.08-2.15.038-4.301.091-6.451.231-2.101.133-4.206.175-6.303.357-1.305.11-2.613.182-3.918.319-2.093.219-4.179.5-6.28.656-1.817.136-3.615.504-5.446.508-.232 0-.463.053-.698.083l-3.899.467c-.231.026-.466.049-.698.079-1.065.144-2.127.311-3.197.429-1.672.186-3.349.36-5.01.641-1.335.227-2.673.459-4.005.698-1.702.307-3.398.641-5.1.936-1.294.224-2.568.52-3.82.907-1.699.523-3.386 1.077-5.082 1.612-.447.14-.902.261-1.372.167l.011.075.004-.053zm82.286-7.831c.03.857.038 1.422.072 1.979.03.516-.167.914-.577 1.206a7.44 7.44 0 01-.944.603c-.664.346-1.346.653-2.021.979-.425.205-.873.33-1.32.459-1.76.508-3.58.701-5.37 1.039-1.707.319-3.444.338-5.166.546a57.807 57.807 0 01-3.216.285c-1.399.091-2.806.129-4.206.212-4.16.25-8.324.288-12.488.303-.842.004-1.684-.072-2.522-.113-.281-.016-.562-.038-.842-.05-1.495-.057-2.993-.106-4.487-.174-1.543-.068-3.083-.156-4.627-.232-.466-.022-.94.004-1.403-.064-1.399-.205-2.803-.129-4.206-.121-.887.003-1.775.057-2.662.079-.702.015-1.403.019-2.105.027-.561.007-1.123.026-1.684.019-2.48-.038-4.961-.042-7.437.117-2.101.133-4.195.361-6.296.512-.982.072-1.956.22-2.916.41a37.949 37.949 0 00-6.974 2.105c-.865.356-1.737.694-2.606 1.039-.27.106-.542.144-.823.072-.083-.023-.197-.068-.22-.133-.023-.064.023-.186.08-.242.098-.095.22-.179.345-.236.728-.318 1.453-.652 2.192-.933 1.267-.481 2.564-.887 3.82-1.399 1.175-.478 2.4-.785 3.594-1.195a39.511 39.511 0 015.556-1.486c2.022-.38 4.043-.782 6.076-1.1 2.173-.341 4.339-.721 6.531-.941 1.816-.182 3.629-.39 5.438-.629 2.738-.361 5.484-.622 8.226-.941 2.09-.246 4.195-.39 6.292-.591.743-.072 1.486-.19 2.234-.239 1.634-.103 3.254-.383 4.9-.361.371.004.747-.057 1.118-.083.793-.061 1.586-.14 2.382-.171 2.291-.083 4.585-.125 6.876-.22 2.806-.117 5.605-.314 8.404-.538 1.676-.133 3.356-.281 5.044-.296a8.771 8.771 0 001.255-.121c.88-.137 1.753-.323 2.632-.44 1.165-.16 2.295-.433 3.372-.907.083-.038.182-.041.273-.06.095-.023.303.121.319.223.03.182.075.364.079.55.015.52.008 1.036.008 1.252zm-73.526 9.307v.019c-.466.019-.94-.004-1.399.072-.895.147-1.767.007-2.647-.114-.038-.004-.106-.072-.102-.087.034-.076.068-.19.128-.205a23.951 23.951 0 014.544-.838c1.816-.156 3.637-.3 5.457-.433a64.535 64.535 0 013.08-.163c1.028-.03 2.059.008 3.087-.019 2.385-.053 4.771.031 7.156-.11a26.342 26.342 0 012.666-.004c2.943.122 5.886.262 8.829.41 1.309.065 2.613.22 3.922.247 2.806.056 5.613.087 8.419.075 2.992-.011 5.989-.003 8.977-.238.281-.023.561-.038.842-.031 1.221.031 2.427-.11 3.641-.208.28-.023.557-.069.838-.08 1.779-.08 3.538-.303 5.298-.55 1.437-.201 2.871-.413 4.297-.667 1.707-.304 3.383-.725 4.9-1.62.159-.095.33-.174.501-.254 1.232-.592 1.262-.872 1.664.63.095.356.273.694.429 1.035.171.375.155.705-.137 1.032-.792.879-1.699 1.611-2.779 2.101-1.32.595-2.64 1.206-4.104 1.399-.463.061-.914.201-1.369.303-1.691.368-3.379.751-5.074 1.096a32.67 32.67 0 01-2.769.456c-1.346.151-2.704.231-4.054.356-1.817.171-3.63.364-5.446.531-1.441.133-2.879.345-4.335.303-1.123-.034-2.245-.007-3.368.008-3.227.038-6.455.091-9.682.121a25.864 25.864 0 01-4.195-.284c-2.082-.326-4.179-.512-6.276-.683a18.87 18.87 0 01-1.392-.159 251.95 251.95 0 01-4.426-.736c-.69-.121-1.377-.28-2.029-.55-1.395-.58-2.875-.811-4.361-1.005a49.679 49.679 0 01-2.496-.368 50.894 50.894 0 01-2.605-.557 8.728 8.728 0 00-2.367-.224c-.42.008-.842-.007-1.263-.007zm32.464-15.914c-.55-.694-.546-.709-.993-.918-.679-.314-1.35-.648-2.052-.902-1.092-.398-2.211-.728-3.315-1.096-1.153-.383-2.317-.732-3.443-1.183-.603-.243-1.195-.531-1.813-.725-1.035-.322-1.965-.868-2.917-1.358a3.566 3.566 0 01-1.335-1.213c-.276-.414-.17-.967.266-1.218.239-.136.504-.242.774-.303 1.756-.406 3.523-.375 5.29-.072 1.748.3 3.478.702 5.241.929 1.491.19 2.936.554 4.309 1.176.299.133.599.261.906.371 1.93.71 3.868 1.396 5.787 2.128 1.047.398 2.079.846 3.084 1.339.713.349 1.403.739 2.15 1.016.243.091.641.171.607.478-.046.429-.493.341-.793.372-1.115.117-2.237.17-3.345.322-1.574.216-3.178.114-4.733.467-.091.019-.186 0-.28.011-.603.072-1.206.148-1.806.216-.512.057-1.024.106-1.589.163zm41.699 6.47c.064-1.251.117-2.325.182-3.394.011-.186.061-.368.106-.55.087-.364.379-.576.724-.485.903.239 1.806.47 2.689.762 1.385.455 2.617 1.221 3.85 1.983 1.832 1.134 3.481 2.511 5.165 3.846.216.171.395.394.584.599.125.137.144.387.046.52-.816 1.088-1.696 2.108-2.818 2.897-1.108.778-2.204 1.574-3.315 2.348-1.073.751-2.23 1.361-3.413 1.923-.482.227-.724.136-1.088-.311-.3-.368-.493-.801-.619-1.248-.314-1.13-.751-2.207-1.217-3.277a4.965 4.965 0 01-.432-1.756c-.027-.462-.133-.921-.186-1.388-.099-.883-.186-1.767-.258-2.469zm-31.156 17.719c.22-.023.406-.049.592-.061 1.119-.057 2.241-.114 3.36-.155.179-.008.368.049.539.113.06.023.125.175.102.232-.064.167-.14.364-.273.47a40.8 40.8 0 01-1.669 1.274c-.792.577-1.627 1.1-2.393 1.711-1.471 1.172-3.072 2.127-4.725 3.003a24.68 24.68 0 00-2.048 1.21c-.311.205-.633.398-.937.618-.497.364-1.05.596-1.623.812-1.756.667-3.588 1.054-5.427 1.384-.732.133-1.487.156-2.23.163-.633.008-1.035-.409-1.271-.952-.201-.455-.129-.921.186-1.323.736-.933 1.631-1.692 2.727-2.143 1.092-.451 2.075-1.062 3.004-1.775.186-.144.375-.277.569-.409a16.872 16.872 0 012.4-1.434c1.009-.485 1.988-1.039 2.974-1.57.246-.133.508-.262.705-.451.402-.383.884-.493 1.411-.516 1.354-.061 2.708-.133 4.027-.201zm-66.998 2.567c-.015-.55.019-.713.19-1.081.239-.512.523-.986.936-1.38.338-.322.672-.652.971-1.009a9.35 9.35 0 011.87-1.672 6.446 6.446 0 001.441-1.316 3.856 3.856 0 011.282-1.062c.504-.254.933-.615 1.35-.99.243-.22.49-.432.747-.633.069-.053.167-.072.254-.095.042-.012.114-.012.133.015.053.068.137.174.114.224-.478 1.009-1.02 1.983-1.426 3.026-.614 1.57-1.51 2.992-2.416 4.407-.17.269-.398.535-.664.705a64.192 64.192 0 01-2.855 1.764c-.273.159-.603.243-.918.319-.36.087-.785-.186-.872-.535-.076-.266-.11-.543-.137-.687zm-3.538-14.923c.276.026.557.038.834.076.97.144 1.915.394 2.83.762.519.209 1.038.432 1.577.565.736.182 1.41.489 2.06.857 1.095.622 2.18 1.259 3.333 1.767.205.092.387.251.557.402.046.042.027.171.023.255-.004.034-.05.075-.083.091a1.547 1.547 0 01-.266.075c-.474.095-.925-.022-1.38-.125-1.184-.261-2.37-.504-3.554-.773a418.445 418.445 0 01-5.582-1.305c-.448-.11-.884-.296-1.305-.489-.436-.205-.74-.554-.922-1.009-.087-.216-.015-.501.167-.626.512-.364 1.081-.523 1.71-.523z" fill="#828282" stroke="#828282"/><path d="M147.053 219.426c-.396-.071-.687-.264-.835-.651-.099-.27-.01-.604.203-.749a2.493 2.493 0 011.158-.435c.335-.033.641.059.912.26.315.233.425.798.198 1.126a.844.844 0 01-.296.28c-.424.221-.872.307-1.34.169zm10.524-1.422c.029.009.174.04.284.115.371.263.587.774.184 1.196-.351.366-.767.508-1.264.403a.847.847 0 01-.681-.915.724.724 0 01.14-.379c.318-.396.72-.583 1.337-.42zm4.31 1.875a.93.93 0 01-.767-.708.532.532 0 01-.016-.138c.023-.717.881-1.239 1.524-.925.283.138.49.617.418.962-.109.477-.669.87-1.159.809zm-10.317-1.572c.04-.093.078-.232.154-.346a.718.718 0 01.712-.34c.136.014.277.044.402.098.35.151.697.336.703.777.004.429-.333.64-.661.825a.903.903 0 01-.263.086c-.525.106-1.24-.237-1.047-1.1zm24.017 7.469c.011-.285-.03-.554-.247-.762-.163-.16-.326-.33-.519-.452a.482.482 0 00-.383-.022c-.508.219-.808.599-.785 1.179.015.394.307.728.675.747.227.012.459.011.69-.011.319-.034.554-.326.569-.679zM303.552 85.584c2.066-.16 4.061-.64 6.049-1.198a10.434 10.434 0 003.049-1.392c.967-.653 1.983-1.233 3.007-1.798 1.639-.902 3.243-1.866 4.711-3.045.364-.292.758-.55 1.137-.823.763-.543 1.536-1.07 2.283-1.63.486-.365.964-.74 1.498-1.04.198-.11.402-.266.524-.451.254-.391.595-.546 1.046-.596.603-.064 1.199-.182 1.798-.292 1.98-.356 3.96-.717 5.935-1.085 3.129-.58 6.254-1.164 9.379-1.76 1.104-.208 2.196-.473 3.319-.568.322-.027.641-.14.955-.22 1.449-.376 2.902-.747 4.313-1.236.967-.338 1.903-.782 2.825-1.237 1.517-.747 2.901-1.714 4.259-2.711.94-.694 1.847-1.438 2.772-2.147a8.44 8.44 0 001.305-1.27c.33-.395.686-.767 1.028-1.15.094-.106.102-.405.03-.534-.25-.46-.603-.835-1.001-1.16-.835-.68-1.677-1.351-2.515-2.026-.364-.292-.724-.588-1.088-.884-1.058-.857-2.2-1.581-3.379-2.256-1.271-.725-2.625-1.218-4.036-1.59-.447-.117-.959-.143-1.297-.489-.311-.318-.614-.326-1.012-.269-.311.046-.656-.026-.963-.121-1.297-.406-2.636-.637-3.952-.956-1.464-.356-2.943-.5-4.43-.686-2.746-.342-5.499-.5-8.26-.603-.095-.004-.19 0-.281-.012-1.494-.22-2.984-.087-4.482-.019-.983.042-1.965.02-2.947.03a23.37 23.37 0 00-1.263.046c-.482.03-.952.046-1.191-.497-.205-.106-.402-.231-.614-.314-.694-.277-1.396-.535-2.094-.812-.216-.087-.417-.205-.629-.307-.376-.186-.751-.38-1.134-.554-.554-.246-1.119-.478-1.677-.713-.257-.11-.512-.235-.777-.326-1.016-.353-2.04-.675-3.049-1.047-1.054-.387-2.116-.75-3.129-1.244-1.399-.686-2.894-1.062-4.433-1.263-.603-.08-1.214-.144-1.802-.288-1.638-.406-3.307-.61-4.968-.887-1.453-.247-2.89-.19-4.323.121-.319.068-.63.175-.945.27-.322.098-.576.299-.804.542-.546.58-.569.94-.091 1.608.649.902 1.54 1.498 2.526 1.957 1.229.572 2.48 1.1 3.72 1.65.858.379 1.741.678 2.648.92 1.536.414 3.06.873 4.528 1.499.641.273 1.304.523 1.854.978.065.053.122.167.11.243-.011.072-.102.167-.178.19-.629.174-1.255.383-1.896.497-2.215.383-4.407.857-6.603 1.33-1.418.308-2.848.543-4.225 1.013-1.266.122-2.442.626-3.686.858-1.107.204-2.162.602-3.216.99-1.582.58-3.155 1.171-4.737 1.751a142.138 142.138 0 00-5.886 2.276c-.819.341-1.65.664-2.473.994a29.43 29.43 0 00-4.255 2.15c-.599.36-1.229.679-1.854.986-.926.455-1.87.86-2.735 1.43-.155.102-.326.19-.5.254-.622.235-1.172.569-1.616 1.077-.152.17-.356.307-.557.42a1.25 1.25 0 01-.528.168c-.326.019-.652-.012-.982-.015-.246-.004-.474-.08-.633-.255-.558-.599-1.278-.929-1.995-1.274-.505-.242-1.017-.481-1.491-.781-1.077-.679-2.241-1.16-3.439-1.566-.179-.061-.361-.107-.531-.182-1.331-.603-2.761-.869-4.172-1.199-1.013-.239-1.949-.041-2.848.432a1.02 1.02 0 00-.474 1.32c.371.91.955 1.6 1.934 1.893.402.117.796.277 1.21.364 2.059.436 4.08 1.028 6.166 1.342.876.133 1.733.391 2.61.554.595.11 1.206.144 1.805.224.079.011.155.083.224.136.064.05-.008.285-.114.376-.106.09-.205.193-.319.273-.151.11-.311.212-.474.303-.785.444-1.445 1.04-2.014 1.73a6.61 6.61 0 01-1.217 1.153c-1.217.89-2.207 2.021-3.246 3.098-.315.326-.509.781-.717 1.195-.258.52-.296 1.077-.156 1.642.069.273.118.554.224.808.068.163.205.33.353.417.504.292 1.05.387 1.619.178.133-.05.266-.09.391-.155 1.088-.543 2.161-1.115 3.159-1.82a3.765 3.765 0 001.05-1.112c.858-1.396 1.669-2.818 2.329-4.32.133-.3.247-.606.398-.898.213-.414.326-.93.744-1.165.352-.197.788-.254 1.194-.349.178-.041.376-.053.554-.026.971.136 1.942.284 2.909.444a8.91 8.91 0 012.014.591 17.56 17.56 0 003.747 1.15c1.008.185 1.991.523 2.969.83a18.8 18.8 0 002.454.588c2.632.451 5.279.785 7.934 1.008 1.725.148 3.44.38 5.161.528 2.985.261 5.97.481 8.973.349 1.965-.088 3.929.056 5.894.147 1.358.065 2.712.103 4.069.084.838-.011 1.684-.046 2.515.114.114.022.163.094.144.204-.008.042-.015.1-.042.122-.14.121-.277.254-.436.345-.447.254-.895.516-1.361.728a17.058 17.058 0 00-3.478 2.101c-.33.262-.694.474-1.036.724-.644.475-1.327.88-2.074 1.169-1.024.398-1.87 1.046-2.636 1.824-.334.337-.622.701-.827 1.126-.284.596-.261 1.18.137 1.722.136.186.303.356.466.523.346.35.77.531 1.256.543.356.011.682-.016 1.009-.027zM270.652 66c-.088.106-.156.242-.266.314-.193.126-.413.22-.626.311-.341.152-.69.285-1.027.44-.054.023-.065.144-.084.22-.004.015.08.072.11.061.812-.224 1.619-.451 2.431-.679.451-.125.91-.22 1.384-.178 1.589.14 3.178.053 4.771.026.888-.015 1.771.042 2.655.209 1.976.368 3.963.69 5.943 1.04 1.153.2 2.294.439 3.409.81.846.281 1.715.475 2.598.589.232.03.467.056.69.117 1.457.39 2.959.478 4.442.633 2.138.228 4.277.46 6.409.767 1.202.17 2.419.314 3.633.34 2.34.054 4.68.05 7.02 0 2.431-.052 4.862-.2 7.297-.166 1.449.019 2.897-.03 4.338-.25 1.062-.163 2.139-.235 3.213-.334 1.49-.137 2.984-.239 4.475-.39 1.069-.11 2.143-.232 3.201-.422 2.488-.443 4.96-.955 7.418-1.532.273-.064.542-.151.819-.19.561-.075 1.092-.257 1.616-.462.477-.186.955-.38 1.433-.573.872-.36 1.676-.834 2.374-1.475 1.184-1.088 1.127-.96 1.684.444.137.345.326.67.486 1.008.079.167.148.342.208.52.053.152-.03.28-.14.364a2.17 2.17 0 01-.486.27c-1.228.455-2.491.8-3.766 1.11-1.274.315-2.567.513-3.86.714-1.385.216-2.75.557-4.138.77-1.107.17-2.226.295-3.311.599-.269.075-.55.102-.827.151-1.289.228-2.582.452-3.872.683-1.38.247-2.761.493-4.137.762-1.476.289-2.966.402-4.464.478-.702.034-1.403.053-2.105.099-1.961.121-3.921.273-5.886.368-2.476.117-4.961.14-7.441.102-1.543-.023-3.091-.042-4.63-.14a48.624 48.624 0 00-4.07-.095c-1.543.034-3.091.08-4.63-.072-1.536-.152-3.072-.326-4.608-.49-.979-.102-1.953-.2-2.932-.295-.978-.095-1.957-.175-2.935-.273-.839-.084-1.673-.194-2.511-.273a52.082 52.082 0 01-4.722-.683c-.504-.095-.997-.246-1.494-.38-1.312-.344-2.598-.784-3.937-1.023a8.737 8.737 0 01-1.611-.478c-1.483-.573-2.974-1.13-4.559-1.373a.38.38 0 01-.129-.045c-.038-.023-.102-.073-.098-.095.018-.08.041-.197.102-.228 1.043-.538 2.177-.846 3.273-1.247.614-.224 1.229-.463 1.904-.463.038-.015.076-.034.117-.042.023-.007.053 0 .08 0-.076.019-.156.023-.231.027zm-3.004-1.658c1.634-1 3.368-1.828 5.036-2.772 1.749-.994 3.611-1.771 5.484-2.5 1.616-.625 3.228-1.255 4.855-1.846 2.021-.736 4.061-1.426 6.083-2.162 1.589-.58 3.242-.903 4.866-1.343a46.69 46.69 0 012.867-.663c2.886-.596 5.78-1.15 8.662-1.767 2.564-.55 5.15-.949 7.756-1.263.648-.08 1.3-.171 1.953-.224 1.63-.133 3.265-.243 4.9-.364.231-.02.466-.046.697-.072 2.325-.243 4.65-.558 6.998-.437.14.008.28-.003.421-.007a51.281 51.281 0 015.612.102c2.147.148 4.294.292 6.44.448.326.023.649.09.971.129 1.115.133 2.207.402 3.315.592a44.8 44.8 0 014.376.986c1.369.371 1.214.33 1.043 1.619a2.233 2.233 0 01-.049.277c-.065.296-.235.523-.508.625-.873.334-1.711.755-2.651.884-.789.11-1.574.224-2.355.38-1.426.28-2.856.492-4.313.481a13.34 13.34 0 00-1.403.06c-2.142.22-4.289.338-6.436.475-.652.042-1.304.121-1.957.17-.466.038-.933.069-1.399.08-2.15.038-4.301.091-6.451.232-2.101.132-4.206.174-6.303.356-1.305.11-2.613.182-3.918.319-2.093.22-4.179.5-6.28.656-1.817.136-3.614.504-5.446.508-.232 0-.463.053-.698.083l-3.899.467c-.231.026-.466.049-.698.08-1.065.144-2.127.31-3.197.428-1.672.186-3.348.36-5.01.64-1.335.228-2.673.46-4.004.699-1.703.307-3.399.64-5.101.936-1.294.224-2.568.52-3.819.907-1.699.523-3.387 1.077-5.082 1.612-.448.14-.903.261-1.373.167l.011.075.004-.053zm82.286-7.831c.03.857.038 1.422.072 1.98.03.515-.167.913-.577 1.206-.303.216-.61.432-.944.602-.664.346-1.346.653-2.021.979-.425.205-.873.33-1.32.459-1.76.508-3.58.701-5.37 1.039-1.707.319-3.444.337-5.166.546a57.06 57.06 0 01-3.216.284c-1.399.092-2.806.13-4.206.213-4.16.25-8.324.288-12.488.303-.842.004-1.684-.072-2.522-.113-.281-.016-.562-.038-.842-.05-1.494-.057-2.993-.106-4.487-.174-1.543-.068-3.083-.156-4.627-.231-.466-.023-.94.003-1.403-.065-1.399-.205-2.803-.129-4.206-.121-.887.003-1.775.056-2.662.08-.702.014-1.403.018-2.105.026-.561.007-1.123.026-1.684.019-2.48-.038-4.96-.042-7.437.117-2.101.133-4.194.36-6.295.512-.983.072-1.957.22-2.917.41a37.979 37.979 0 00-6.974 2.105c-.865.356-1.737.694-2.606 1.039a1.308 1.308 0 01-.823.072c-.083-.023-.197-.068-.22-.133-.022-.064.023-.186.08-.242.099-.095.22-.179.345-.236.728-.318 1.453-.652 2.192-.933 1.267-.481 2.564-.887 3.819-1.399 1.176-.478 2.401-.785 3.595-1.195a39.658 39.658 0 015.556-1.486c2.022-.38 4.043-.782 6.076-1.1 2.173-.342 4.339-.72 6.531-.94 1.816-.183 3.629-.391 5.438-.63 2.738-.36 5.484-.622 8.226-.94 2.09-.247 4.195-.391 6.292-.592.743-.072 1.487-.19 2.234-.24 1.634-.102 3.254-.382 4.9-.36.371.004.747-.056 1.118-.083.793-.06 1.586-.14 2.382-.17 2.291-.084 4.585-.126 6.876-.22 2.806-.118 5.605-.316 8.404-.54 1.676-.132 3.356-.28 5.044-.295a8.672 8.672 0 001.255-.121c.88-.137 1.753-.323 2.632-.44 1.165-.16 2.295-.433 3.372-.907.083-.038.182-.041.273-.06.095-.023.303.12.319.223.03.182.075.364.079.55.015.52.008 1.036.008 1.252zm-73.525 9.307v.019c-.467.019-.941-.004-1.4.072-.895.147-1.767.007-2.647-.114-.038-.004-.106-.072-.102-.087.034-.076.068-.19.129-.205a24.004 24.004 0 014.543-.838c1.817-.156 3.637-.3 5.457-.433a64.144 64.144 0 013.08-.163c1.028-.03 2.059.008 3.087-.019 2.385-.053 4.771.03 7.156-.11a26.072 26.072 0 012.667-.003c2.943.12 5.886.261 8.829.41 1.308.064 2.613.219 3.921.246 2.806.056 5.613.087 8.419.075 2.993-.01 5.989-.003 8.977-.239a7.82 7.82 0 01.842-.03c1.221.03 2.427-.11 3.641-.208.281-.023.557-.069.838-.08 1.779-.08 3.538-.303 5.298-.55 1.438-.2 2.871-.413 4.297-.667 1.707-.304 3.383-.725 4.9-1.62.159-.095.33-.174.501-.254 1.232-.592 1.263-.872 1.665.63.094.356.273.694.428 1.035.171.375.156.705-.136 1.032-.793.88-1.699 1.611-2.78 2.1-1.32.596-2.64 1.207-4.104 1.4-.463.06-.914.201-1.369.303-1.691.368-3.379.751-5.074 1.097-.914.185-1.84.348-2.769.455-1.346.151-2.704.23-4.054.356-1.817.17-3.629.364-5.446.531-1.441.133-2.879.345-4.335.303-1.122-.034-2.245-.007-3.368.008-3.227.038-6.454.091-9.682.121a25.89 25.89 0 01-4.194-.284c-2.082-.326-4.18-.512-6.277-.683a18.932 18.932 0 01-1.392-.159 258.32 258.32 0 01-4.426-.736c-.69-.121-1.376-.28-2.029-.55-1.395-.58-2.874-.811-4.361-1.005a50.198 50.198 0 01-2.496-.368 50.936 50.936 0 01-2.605-.557 8.723 8.723 0 00-2.367-.224c-.42.008-.841-.007-1.262-.007zm32.463-15.914c-.55-.694-.546-.709-.993-.918-.679-.314-1.35-.648-2.052-.902-1.092-.398-2.211-.728-3.315-1.096-1.153-.383-2.317-.732-3.443-1.184-.603-.242-1.195-.53-1.813-.724-1.035-.322-1.965-.868-2.916-1.358a3.56 3.56 0 01-1.335-1.213c-.277-.413-.171-.967.265-1.218.239-.136.504-.242.774-.303 1.756-.406 3.523-.375 5.29-.072 1.749.3 3.478.702 5.241.93 1.491.189 2.936.553 4.309 1.175.299.133.599.261.906.371 1.931.71 3.869 1.396 5.788 2.128 1.046.398 2.078.846 3.083 1.339.713.349 1.403.74 2.15 1.016.243.091.641.17.607.478-.045.429-.493.341-.793.372-1.115.117-2.237.17-3.345.322-1.573.216-3.178.114-4.733.467-.091.019-.185 0-.28.011-.603.072-1.206.148-1.806.216-.512.057-1.024.106-1.589.163zm41.699 6.47c.064-1.251.118-2.325.182-3.394.011-.186.061-.368.106-.55.087-.364.379-.576.725-.485.902.239 1.805.47 2.689.762 1.384.455 2.616 1.221 3.849 1.983 1.832 1.134 3.481 2.511 5.165 3.846.216.17.395.394.584.6.125.136.144.386.046.519-.816 1.088-1.695 2.108-2.818 2.897-1.107.778-2.203 1.574-3.315 2.348-1.073.75-2.23 1.361-3.413 1.923-.482.227-.724.136-1.088-.311-.3-.368-.493-.8-.619-1.248-.314-1.13-.75-2.207-1.217-3.277a4.988 4.988 0 01-.432-1.756c-.027-.462-.133-.921-.186-1.388-.099-.884-.186-1.767-.258-2.469zm-31.155 17.719c.22-.023.405-.05.591-.06a250.79 250.79 0 013.36-.156c.179-.008.368.049.539.113.061.023.125.175.102.232-.064.167-.14.364-.273.47-.542.44-1.103.86-1.668 1.274-.793.577-1.627 1.1-2.394 1.71-1.471 1.173-3.071 2.128-4.725 3.004-.705.372-1.384.774-2.048 1.21-.311.205-.633.398-.937.618-.497.365-1.05.596-1.623.812-1.756.668-3.588 1.054-5.427 1.384-.732.133-1.487.156-2.23.163-.633.008-1.035-.41-1.27-.952-.201-.455-.129-.921.185-1.323.736-.933 1.631-1.692 2.727-2.143 1.092-.451 2.075-1.062 3.004-1.775.186-.144.375-.277.569-.41a16.888 16.888 0 012.4-1.433c1.009-.485 1.988-1.04 2.974-1.57.246-.133.508-.262.705-.451.402-.383.884-.493 1.411-.516 1.354-.06 2.708-.133 4.028-.201zm-66.999 2.567c-.015-.55.019-.713.19-1.08.239-.513.523-.987.937-1.381.337-.322.671-.652.97-1.009a9.36 9.36 0 011.87-1.672 6.417 6.417 0 001.441-1.316 3.863 3.863 0 011.282-1.062c.505-.254.933-.615 1.35-.99.243-.22.49-.432.747-.633.069-.053.167-.072.255-.095.041-.012.113-.012.132.015.053.068.137.174.114.224-.478 1.008-1.02 1.983-1.426 3.026-.614 1.57-1.509 2.992-2.416 4.407-.17.27-.398.535-.663.705a65.09 65.09 0 01-2.856 1.764c-.273.16-.603.243-.918.319-.36.087-.785-.186-.872-.535-.076-.266-.11-.542-.137-.687zm-3.538-14.923c.277.026.557.038.834.076.971.144 1.915.394 2.829.762.52.209 1.039.432 1.578.565.736.182 1.411.49 2.059.857 1.096.622 2.181 1.26 3.334 1.767.205.092.387.25.557.403.046.041.027.17.023.254-.004.034-.049.075-.083.09a1.636 1.636 0 01-.266.077c-.474.094-.925-.023-1.38-.126-1.183-.261-2.371-.504-3.554-.773a408.533 408.533 0 01-5.582-1.305c-.448-.11-.884-.296-1.305-.49-.436-.204-.739-.553-.922-1.008-.087-.216-.015-.5.167-.626.512-.364 1.081-.523 1.711-.523z" fill="#828282" stroke="#828282"/><path d="M329.038 53.05c-.396-.07-.687-.263-.835-.65-.099-.27-.009-.604.203-.75a2.5 2.5 0 011.158-.434c.335-.033.641.06.912.26.315.233.425.798.198 1.126a.837.837 0 01-.296.28c-.424.221-.872.307-1.34.169zm10.524-1.421c.03.01.174.04.284.115.371.263.587.774.184 1.196-.351.366-.767.508-1.264.403a.847.847 0 01-.681-.915.724.724 0 01.14-.379c.318-.396.72-.583 1.337-.42zm4.31 1.875a.927.927 0 01-.766-.708.536.536 0 01-.017-.138c.023-.717.881-1.239 1.524-.925.283.138.49.617.418.962-.109.477-.669.87-1.159.809zm-10.317-1.573c.041-.092.078-.232.154-.345a.719.719 0 01.712-.34c.136.013.277.044.402.098.35.15.697.335.703.776.004.43-.332.64-.66.826a.883.883 0 01-.264.085c-.525.106-1.24-.237-1.047-1.1zm24.017 7.469c.011-.284-.03-.553-.246-.761-.164-.16-.327-.33-.52-.452a.481.481 0 00-.383-.023c-.508.22-.808.6-.785 1.18.015.394.307.728.675.747.227.011.459.011.69-.011.319-.034.554-.326.569-.68z" fill="#828282" stroke="#828282"/></svg>