<svg width="893" height="1130" viewBox="0 0 893 1130" fill="none" xmlns="http://www.w3.org/2000/svg"><path fill-rule="evenodd" clip-rule="evenodd" d="M131.325 137.101c-29.577 48.841 33.225 256.147 33.225 256.147s110.472 172.458 205.727 235.171c95.256 62.712 214.53 139.051 401.206 135.511 31.997-.606 63.754 4.91 64.24 37.941.485 33.031-36.291 42.712-68.287 43.318-243.339 23.987-357.896-18.294-475.158-112.097-119.043-95.228-178.633-260.746-197.613-464.845-3.058-32.875 4.806-127.884 36.66-131.146z" fill="#F7F7F7"/><path fill-rule="evenodd" clip-rule="evenodd" d="M387.325 13.55c.639.208.989.893.782 1.531-6.196 19.123-22.464 41.296-43.222 64.014-20.788 22.752-46.203 46.18-70.854 67.816-12.328 10.819-24.471 21.196-35.753 30.818l-2.619 2.233c-10.279 8.766-19.779 16.866-27.981 24.067-8.899 7.814-16.243 14.545-21.386 19.9-2.573 2.68-4.569 4.988-5.927 6.895-1.401 1.966-1.979 3.312-2.019 4.111l-.025.503-.373.337c-2.616 2.368-6.433 6.275-9.88 10.434-3.477 4.196-6.454 8.503-7.54 11.694-1.733 5.089-5.127 10.216-8.576 15.18-.442.637-.885 1.271-1.327 1.903-3.043 4.353-6.451 8.697-8.438 12.828-6.314 13.128-5.563 29.031-3.204 45.363 1.113 7.7 2.673 15.416 4.185 22.889l.265 1.308c1.588 7.861 1.247 16.161 2.048 23.069.077.666.666-.078 0 0-.667.077-.493.229-.57-.437-.787-6.789-2.269-14.273-3.861-22.15l-.267-1.325c-1.509-7.458-3.082-15.237-4.205-23.007-2.374-16.43-2.774-33.063 3.87-46.877 2.079-4.323 5.164-8.734 8.193-13.066.441-.63.88-1.258 1.315-1.884 3.47-4.994 6.665-9.857 8.271-14.577 1.242-3.65 4.483-8.254 7.97-12.462 3.374-4.071 7.095-7.908 9.78-10.375.241-1.443 1.149-3.101 2.408-4.869 1.459-2.047 3.546-4.452 6.154-7.168 5.219-5.435 12.629-12.224 21.535-20.043 8.216-7.213 17.728-15.324 28.002-24.085l2.625-2.238c11.282-9.622 23.413-19.989 35.727-30.796 24.631-21.618 47.022-47.4 67.719-70.052 20.728-22.685 39.624-42.107 45.648-60.7a1.215 1.215 0 011.53-.781z" fill="#5271FF"/><path d="M169.878 244.787c1.266 21.714 2.999 38.83 16.192 54.879 11.691 14.222 22.817 30.346 34.798 44.992 16.715 20.431 34.484 37.83 53.167 56.18 14.047 13.797 21.529 33.608 37.199 45.652 23.894 18.365 40.43 43.482 63.982 61.585 21.891 16.826 42.313 37.338 66.111 51.418 10.171 6.017 18.82 14.549 30.168 18.535 12.451 4.374 24.597 9.054 36.883 14.004 30.601 12.329 63.562 30.087 91.407 48.352a1114.641 1114.641 0 0052.461 32.353c10.782 6.242 28.364 16.571 40.424 18.911 12.682 2.461 23.737 10.389 35.932 14.092 13.618 4.134 29.303 10.618 41.549 18.021 17.288 10.45 55.524 21.693 67.43 38.506 7.04 9.94 4.224 13.547 15.005 18.997 10.782 5.449 14.888 19.423 13.19 25.597-1.839 6.686-9.318 18.019-15.433 19.441-10.121 2.354-11.122 10.09-20.181 11.634-9.274 1.582-14.875 8.249-28.064 1.644-8.536-11.832-39.447-17.416-51.898-11.101-15.979 8.104-119.288 14.74-165.029 6.243M164.55 144.15c-11.902-4.526-35.606-12.718-45.976-20.067-4.438-3.145-13.485-6.619-18.987-6.893-11.734-.585-20.888 6.983-33.13 5.649-8.881-.968-28.365-8.939-34.598-16.458-4.551-5.49-9.034-10.976-13.663-16.091-.29-.321-6.17 13.981-6.773 16.56-5.869 25.107-7.13 44.22 2.433 70.551 6.81 18.749 24.695 40.987 38.634 54.847 5.999 5.966 35.061 39.978 38.996 47.567" stroke="#5271FF" stroke-width="2" stroke-linecap="round"/><path d="M386.373 14.07C314.537 64.023 80.418 147.867 91.091 275.536c1.188 14.213 19.461 134.415 18.747 148.755-.558 11.21 2.549 26.433 5.981 37.337 4.169 13.248 12.912 23.015 12.177 37.782-1.448 29.071 23.36 51.182 30.739 77.638 4.484 16.079 8.401 30.44 16.702 44.631 9.371 16.019 26.939 28.053 40.441 40.27 13.273 12.011 25.294 26.762 39.638 37.392 12.217 9.055 21.08 23.788 34.964 30.806 11.178 5.65 19.787 15.452 33.007 18.542 14.234 3.327 26.676 12.955 39.898 18.615 26.941 11.533 57.117 31.072 85.182 37.632 18.323 4.284 36.998 9.633 52.613 18.437" stroke="#5271FF" stroke-width="2" stroke-linecap="round"/><path fill-rule="evenodd" clip-rule="evenodd" d="M605.089 734.897a1.215 1.215 0 011.401.996l.567 3.34c4.127 24.245 7.132 41.9-2.109 64.834-3.81 9.456-9.758 17.829-15.641 26.045l-.304.424c-5.809 8.112-11.52 16.087-15.283 24.986-2.3 5.438-4.508 10.925-6.718 16.417-5.517 13.711-11.047 27.455-18.063 40.578-2.37 4.434-4.845 8.918-7.336 13.434-6.767 12.264-13.659 24.755-18.931 37.07-11.355 26.525-27.123 48.279-43.369 70.699-4.255 5.87-8.542 11.78-12.792 17.84-7.034 10.03-9.673 19.66-12.615 30.4-1.028 3.75-2.093 7.64-3.395 11.73-4.068 12.76-12.459 18.76-21.538 25.25-.7.5-1.405 1-2.111 1.51-.479.35-1.025.59-1.625.62a2.654 2.654 0 01-1.625-.47c-.859-.59-1.468-1.62-1.928-2.71-.946-2.22-1.62-5.54-2.101-8.98-.967-6.92-1.221-14.9-1.11-17.13.46-9.23 2.414-18.21 4.74-26.94.933-3.51 1.919-6.95 2.894-10.36 1.448-5.05 2.873-10.03 4.068-15.01-2.214-11.5-.501-23.01 2.298-34.38 1.174-4.76 2.547-9.525 3.91-14.255l.82-2.854c1.627-5.677 3.181-11.307 4.329-16.902.962-4.686 1.272-10.117 1.596-15.797.124-2.182.251-4.4.417-6.628.591-7.904 1.688-15.875 5.184-21.989 3.294-5.762 3.73-10.785 4.205-16.245l.048-.558c.499-5.701 1.147-11.816 5.382-19.217a523.601 523.601 0 008.78-15.992 432.18 432.18 0 002.458-4.74c.283-.556.5-.986.646-1.276l.166-.33.041-.083.013-.025v-.002l1.089.54-.951-.757.02-.025.062-.077.239-.304a295.788 295.788 0 004.034-5.27c2.54-3.397 5.788-7.891 8.642-12.299 1.764-2.725 3.402-6.104 5.129-9.671.602-1.241 1.214-2.506 1.847-3.772 2.406-4.82 5.095-9.658 8.498-12.914 4.422-4.231 9.856-10.537 15.261-16.88l1.334-1.566c4.921-5.78 9.743-11.442 13.589-15.31 8.301-8.348 9.366-18.643 5.513-26.077-3.836-7.398-12.701-12.255-24.947-9.406-.654.152-.92.098-.943-.001-.023-.099.317-.408.971-.56 13.193-3.068 22.668.347 27.076 8.848 4.389 8.467 3.021 19.891-5.947 28.909-3.775 3.797-8.535 9.386-13.48 15.194l-1.316 1.545c-5.384 6.318-10.902 12.726-15.431 17.06-3.063 2.932-5.593 7.414-8.004 12.243-.596 1.194-1.185 2.411-1.773 3.625-1.748 3.609-3.483 7.192-5.337 10.054-2.896 4.473-6.18 9.015-8.736 12.434a297.223 297.223 0 01-4.069 5.316l-.193.245-.052.065-.005.007a10.65 10.65 0 00-.057.113l-.111.222a404.132 404.132 0 01-3.126 6.057 524.15 524.15 0 01-8.821 16.067c-3.964 6.927-4.578 12.604-5.07 18.221l-.056.645c-.47 5.429-.945 10.92-4.509 17.153-3.197 5.592-4.279 13.061-4.869 20.964a363.68 363.68 0 00-.403 6.405c-.328 5.748-.653 11.455-1.653 16.327-1.169 5.694-2.746 11.401-4.373 17.084l-.826 2.87c-1.362 4.73-2.719 9.439-3.881 14.159-2.792 11.33-4.41 22.52-2.223 33.58l.052.26-.062.26c-1.214 5.09-2.695 10.27-4.184 15.47-.973 3.4-1.949 6.81-2.855 10.21-2.31 8.68-4.214 17.46-4.661 26.44-.102 2.05.14 9.87 1.09 16.67.478 3.42 1.118 6.46 1.931 8.37.419.99.8 1.47 1.054 1.64.09.06.128.06.136.06.018 0 .123-.01.329-.16.687-.49 1.368-.98 2.041-1.46 9.138-6.55 16.9-12.1 20.714-24.07 1.238-3.89 2.27-7.66 3.28-11.35 2.974-10.86 5.759-21.03 13.056-31.43 4.298-6.13 8.617-12.09 12.89-17.99 16.223-22.38 31.79-43.864 43.027-70.115 5.323-12.436 12.306-25.09 19.092-37.389 2.478-4.491 4.93-8.936 7.266-13.305 6.949-12.999 12.403-26.553 17.9-40.215 2.221-5.519 1.785-12.379 4.122-17.904 3.87-9.152 9.718-17.317 15.477-25.358l.372-.52c5.908-8.251 10.726-17.447 14.411-26.592 8.978-22.284 9.7-36.935 5.555-61.306l-.539-3.178a1.215 1.215 0 01.995-1.401zm-133.542 133.84l-.951-.757-.08.101-.058.116 1.089.54zM183.435 721.165l.428.022c7.101.353 15.175 1.992 23.997 4.173 4.579 1.133 9.442 2.434 14.496 3.786 4.61 1.234 9.379 2.51 14.239 3.74 20.543 5.199 46.498 9.631 70.714 8.122a1.215 1.215 0 011.288 1.137c.042.67 0 0-1.137 1.288-24.601 1.534-50.852-2.976-71.461-8.191-4.97-1.258-9.732-2.533-14.317-3.76-4.998-1.338-9.787-2.62-14.406-3.762-8.609-2.129-16.348-3.698-23.102-4.083-4.112 3.078-6.177 6.212-6.816 9.285-.656 3.157.146 6.478 2.202 9.933 4.15 6.972 13.155 14.063 23.822 20.481 10.619 6.388 22.701 12.001 32.793 16.076 5.043 2.037 9.578 3.684 13.172 4.849 3.64 1.18 6.202 1.827 7.363 1.928 3.222.28 6.71 1.514 10.243 3.176 3.544 1.668 7.222 3.811 10.826 5.974l2.207 1.329c2.853 1.723 5.637 3.404 8.295 4.849 3.347 1.818 6.393 3.205 9.011 3.812 21.577 5.003 40.26-.823 69.516-3.329 3.591-.308 7.161-.624 10.689-.937 10.8-.956 21.207-1.878 30.626-2.415 12.476-.712 36.252 4.551 44.096 6.028.659.124.124-.66 0 0a1.217 1.217 0 01-1.42.969c-7.524-1.417-18.135-1.391-30.605-.679-9.377.535-19.73 1.452-30.519 2.407-3.535.313-7.117.63-10.727.94-29.165 2.499-60.184 4.49-82.205-.617-2.949-.684-6.231-2.201-9.623-4.044-2.711-1.474-5.557-3.192-8.415-4.918-.726-.438-1.452-.876-2.177-1.311-3.601-2.162-7.186-4.248-10.61-5.859-3.434-1.616-6.617-2.711-9.419-2.954-1.476-.129-4.291-.867-7.902-2.037-3.656-1.186-8.245-2.853-13.332-4.907-10.17-4.107-22.375-9.775-33.135-16.248-10.712-6.444-20.178-13.793-24.658-21.32-2.258-3.795-3.31-7.738-2.493-11.67.817-3.931 3.455-7.622 8.109-11.01l.347-.253z" fill="#5271FF"/><path d="M26.281 98.938c-.725 22.821-13.215 69.906 22.78 128.881m4.773-108.042c-4.865 20.6 36.183 91.833 37.98 129.03M81.08 122.351c-1.118 22.452 22.952 76.574 14.494 112.044m26.678-108.169c-20.166 50.703-7.998 64.439-14.426 82.013M305.647 59.322c-5.112 21.502-16.822 30.264-29.024 45.327-14.784 18.249-50.023 63.882-89.217 93.562" stroke="#5271FF" stroke-linecap="round"/><path fill-rule="evenodd" clip-rule="evenodd" d="M276.747 73.863a.608.608 0 01-.013.859c-8.883 8.634-20.835 25.067-33.689 42.739l-1.083 1.49c-13.239 18.2-27.345 37.483-39.892 50.582l-.048.051-.059.038c-3.622 2.368-9.367 7.331-16.07 13.719-6.693 6.378-14.31 14.146-21.671 22.099-7.361 7.954-14.459 16.086-20.114 23.192-5.672 7.126-10.628 13.261-12.193 17.04-.129.31.298.359-.012.23a.608.608 0 01-.329-.794c1.64-3.958 5.92-10.117 11.583-17.233 5.68-7.136 12.799-15.292 20.173-23.26 7.375-7.969 15.011-15.756 21.725-22.154 6.668-6.354 12.457-11.368 16.185-13.818 12.467-13.027 26.502-32.21 39.739-50.407l1.147-1.577c12.801-17.6 24.801-34.1 33.761-42.809a.609.609 0 01.86.013z" fill="#5271FF"/><path fill-rule="evenodd" clip-rule="evenodd" d="M236.621 98.674a.607.607 0 01-.099.853c-12.19 9.639-41.944 39.746-69.431 75.398-13.739 17.821-26.9 37.011-37.01 55.705-10.115 18.703-17.848 38.626-19.388 54.399-.033.334-.061 1.214-.151 3.034-.456-3.064-.396-4.579-.363-4.913 1.563-16.009 8.687-34.338 18.833-53.098 10.151-18.77 23.353-38.016 37.117-55.869 27.52-35.696 57.343-65.886 69.639-75.609a.607.607 0 01.853.1z" fill="#5271FF"/><path d="M608.212 775.173c12.258-8.324 30.56-9.427 45.448-8.686 7.553.376 15.287-3.909 22.464-5.91 4.501-1.256 8.376-1.503 12.122-4.533 2.915-2.359 6.843-5.473 10.085-7.068 5.849-2.878 15.768-8.858 11.782-16.716-1.106-2.182-6.327-1.13-7.026-4.135-.525-2.258-2.646-5.54-5.26-5.67-2.76-.137-5.043-3.035-7.919.214-2.285 2.582-4.218 4.651-5.21 8.257-1.587 5.769 2.465 11.681 8.461 11.979 3.144.157 8.332-1.47 9.306-5.011 1.476-5.366-18.111.379-19.441.857" stroke="#5271FF" stroke-width="2" stroke-linecap="round"/><path fill-rule="evenodd" clip-rule="evenodd" d="M524.312 718.38c7.634-2.559 15.486-4.404 23.394-4.01 2.711.135 5.313.573 7.872 1.004l.003.001c2.57.433 5.095.858 7.707.988 6.164.307 7.08.052 13.117 1.261l7.251.97c6.071 1.216 12.103 2.421 18.229 2.726 2.144.107 5.055.453 7.878 1.088 2.806.632 5.601 1.564 7.459 2.881 1.916 1.357 2.187 2.93 4.539 4.011l.662.305c2.548 1.176 5.118 2.414 7.086 4.108 1.144.985 2.291 1.854 3.445 2.727.435.329.871.659 1.308.996 1.586 1.223 3.159 2.522 4.644 4.163 1.346 1.487 3.223 2.764 5.156 3.055 8.371 1.261 16.081 3.031 24.467 4.267a.607.607 0 01.513.689c-.049.332.332.049 0 0a7878.134 7878.134 0 01-25.161-3.754c-2.304-.347-4.417-1.83-5.876-3.442-1.413-1.56-2.92-2.808-4.485-4.016-.419-.323-.843-.644-1.272-.968-1.164-.881-2.357-1.784-3.532-2.796-1.82-1.567-4.236-2.741-6.802-3.926l-.675-.31c-2.331-1.071-4.739-2.177-6.753-3.604-1.655-1.173-4.256-2.064-7.023-2.686a47.496 47.496 0 00-7.671-1.06c-6.232-.311-12.351-1.536-18.407-2.749l-.013-.002c-6.067-1.216-12.07-2.418-18.145-2.721-2.684-.133-5.269-.569-7.819-.998l-.029-.005c-2.569-.433-5.104-.858-7.734-.989-7.686-.383-15.371 1.409-22.947 3.948-3.787 1.269-7.535 2.721-11.239 4.176l-1.297.51c-3.257 1.282-6.479 2.549-9.643 3.672a.609.609 0 01-.406-1.146c3.143-1.114 6.344-2.374 9.604-3.657l1.298-.51c3.704-1.455 7.478-2.918 11.297-4.197z" fill="#5271FF"/><path d="M737.848 737.224c1.216 12.227-21.127 28.987-46.899 37.813-31.23 10.694-38.712 7.804-82.312 3.807m161.623 3.793c-23.514-4.213-93.172 14.216-162.683 5.279" stroke="#5271FF" stroke-width="2" stroke-linecap="round"/><path d="M795.019 786.303c-75.577 2.927-148.48 25.453-189.594 8.197m209.863.113c-28.604.707-88.832 24.775-216.718 15.363" stroke="#5271FF" stroke-linecap="round"/><path d="M857.132 821.638c-28.604.708-23.431-42.532-102.042-39.757" stroke="#5271FF" stroke-width="2" stroke-linecap="round"/><path d="M833.98 810.144c-15.948-2.834-46.767 8.012-63.015 7.202-8.569-.427-31.638-.052-40.262 2.253-12.681 3.39-14.19-2.492-26.817 1.03-7.515 2.096-10.553-2.625-18.137-.904-10 2.271-20.172 1.533-30.029 3.101-8.236 1.309-18.566 1.238-26.875.824-16.175-.806-20.966.746-36.948-1.841" stroke="#5271FF" stroke-linecap="round"/><path d="M534.76 784.289c-33.923-15.072-76.865-43.074-86.692-54.808m-179.805-41.806c27.583 13.889 55.909 29.811 80.89 47.828 5.502 3.968 12.227 6.799 18.617 8.903 7.107 2.341 13.323 6.339 20.376 8.856 12.308 4.391 21.957 12.636 33.506 18.026 19.342 9.026 40.944 10.795 60.499 18.897 11.24 4.657 23.815 10.004 35.894 12.129M338.291 698.463c10.616 11.729 24.528 18.105 38.196 25.627 11.207 6.168 22.705 13.229 34.366 18.407 18.415 8.177 36.804 16.188 55.156 24.376 11.969 5.341 24.331 9.022 36.357 13.707 6.879 2.681 20.392 7.978 27.904 8.352" stroke="#5271FF" stroke-width="2" stroke-linecap="round"/><path d="M281.679 711.46c11.077 7.535 23.053 13.02 35.023 18.777 12.491 6.008 24.75 11.918 37.604 17.149 11.452 4.659 23.372 6.782 34.752 12.005 11.24 5.158 19.892 15.349 31.308 20.079 11.563 4.791 24.46 7.603 36.872 10.15 7.438 1.527 18.536 4.492 25.09 7.874 6.826 3.523 15.379 4.928 22.14 8.741 3.688 2.079 5.964 3.744 6.996 6.093" stroke="#5271FF" stroke-width="2" stroke-linecap="round"/><path fill-rule="evenodd" clip-rule="evenodd" d="M560.802 835.468c.522.422-7.096 11.377-7.517 11.9-10.208 12.659-16.278 26.785-22.568 41.424-1.36 3.163-2.729 6.351-4.153 9.553-2.011 4.52-4.081 9.051-6.154 13.589-4.226 9.249-8.467 18.532-12.254 27.837-5.252 12.908-11.252 25.459-17.258 37.973l-.479.997c-5.851 12.191-11.689 24.349-16.863 36.839-2.086 5.04-3.749 10.2-5.427 15.42-.489 1.52-.98 3.04-1.482 4.56-2.218 6.74-4.661 13.47-8.243 19.82-1.674 2.97-3.408 5.94-5.149 8.93-5.72 9.82-15.718 26.32-19.716 36.58-1.573.69-.948.93-1.573.69-.625-.25 3.265-7.5 3.508-8.12 4.074-10.46 10.007-20.64 15.746-30.49 1.725-2.96 3.433-5.89 5.067-8.78 3.46-6.14 5.844-12.69 8.052-19.39.49-1.49.973-2.99 1.457-4.49 1.684-5.23 3.387-10.52 5.515-15.66 5.199-12.55 11.063-24.764 16.906-36.937l.49-1.02c6.009-12.522 11.978-25.009 17.198-37.838 3.805-9.351 8.084-18.717 12.323-27.994a1474.13 1474.13 0 006.115-13.504c1.397-3.14 2.748-6.287 4.096-9.426 6.294-14.655 11.522-26.046 21.958-38.99 3.643-4.517 9.882-13.894 10.405-13.473z" fill="#5271FF"/><path d="M581.179 780.518c-.797 2.046-.804 3.737-1.453 6.011-.289 1.009-1.263 4.966-1.579 6.004-1.005 3.312-.151 3.034-3.051 8.736-1.752 2.532-3.667 4.921-5.561 7.265l-.343.425c-1.785 2.208-3.541 4.38-5.162 6.645-1.658 2.317-3.248 4.697-4.845 7.1l-.411.618c-1.458 2.195-2.927 4.406-4.449 6.578-3.329 4.755-6.943 9.373-11.37 13.38-4.265 3.86-8.611 7.535-12.926 11.183l-.033.028c-4.309 3.643-8.586 7.259-12.752 11.03-3.591 3.25-6.105 7.434-8.47 11.899-.496.936-.986 1.888-1.48 2.845-1.829 3.548-3.697 7.172-6.012 10.356-6.1 8.387-10.237 18.106-14.396 27.877v.001c-1.201 2.82-2.403 5.645-3.655 8.443-3.971 8.878-7.407 18.415-10.813 27.868l-.001.002c-1.534 4.259-3.062 8.5-4.631 12.658-9.57 25.367-20.029 74.15-27.115 100.24l-.011.04c-.613 2.26-1.227 4.52-1.845 6.79-.176.65 1.203-18.83 3.052-30.77 4.826-31.14 14.032-51.677 23.646-77.158 1.54-4.083 3.053-8.284 4.58-12.521 3.422-9.496 6.91-19.179 10.92-28.141 1.209-2.704 2.384-5.466 3.568-8.248 4.175-9.814 8.456-19.877 14.735-28.511 2.195-3.017 3.951-6.422 5.768-9.945h.001a284.14 284.14 0 011.542-2.963c2.384-4.504 5.062-9.012 8.986-12.564 4.196-3.798 8.5-7.437 12.798-11.071l.049-.041c4.32-3.652 8.635-7.301 12.864-11.129 4.231-3.83 7.725-8.28 11.011-12.972 1.503-2.146 2.956-4.333 4.417-6.533l.409-.615c1.596-2.401 3.208-4.813 4.893-7.168 1.664-2.326 3.462-4.55 5.237-6.745l.354-.438c1.897-2.348 3.759-4.673 5.453-7.121 1.743-2.519 2.868-5.573 3.859-8.838.288-.95.567-1.925.848-2.908l.001-.001c.664-2.326 1.866-4.282 2.706-6.438.244-.625.042-1.427.667-1.183z" fill="#5271FF"/><path d="M117.651 340.733c-.026 11.772 10.454 21.579 13.922 32.596 2.614 8.307 3.148 15.713 9.16 22.356 2.927 3.234 6.731 4.627 10.401 6.939 4.979 3.136 4.79 6.801 6.64 11.889 1.794 4.934.418 10.318.515 15.436.141 7.339.146 16.311 2.419 23.372 3.159 9.815 5.201 22.935 14.103 28.955 5.842 3.951 13.9 6.357 17.259 13.094 2.284 4.578 2.982 8.777 4.53 13.541 1.147 3.529.087 9.753-.466 13.427-1.096 7.284-.469 11.189 1.591 18.261 3.635 12.475 13.962 17.942 24.968 22.535 10.978 4.581 21.136 12.246 31.318 18.525 8.638 5.327 12.97 19.069 17.548 27.64 3.887 7.276 7.261 14.495 12.956 20.788 7.28 8.043 16.768 7.538 24.851 14.012 12.679 10.154 13.152 25.414 23.126 36.434 8.105 8.955 16.731 16.32 26.189 23.813" stroke="#5271FF" stroke-linecap="round"/><path d="M396.242 707.433c7.938 6.902 18.203 15.463 29.409 14.78 3.42-.209-.467-5.113-1.387-6.085-3.595-3.799-7.753-5.958-12.515-7.923-3.071-1.267-12.793 1.941-8.767 6.39 2.64 2.916 22.499 12.412 14.035 4.552-4.336-4.027-12.452-6.868-2.421-2.96 5.47 2.131-1.516.601-.573.648.304.015 3.363.05 1.935-.85-.605-.381-3.513-1.662-3.5-1.661 1.852.092 8.113-.25 6.42 2.753m21.906-.126c6.408 1.356 15.945 3.014 9.768-6.137-2.973-4.404-5.374-5.81-10.378-6.059-2.353-.118-7.527-.784-9.513 1.013-3.753 3.397 14.093 9.56 15.995 9.989 13.513 3.049-.304-11.958-6.723-6.148-2.378 2.152 3.446 5.637 4.356 4.813 1.2-1.086-10.182-5.529-.897-.991m-71.608-27.9c-3.434-1.825-11.309-5.247-7.305 1.461 2.889 4.84 11.572 8.257 16.8 8.745 13.4 1.253-1.287-11.013-8.153-11.355-11.358-.566.762 10.987 7.142 11.305 4.868.242-2.063-8.461-4.903-8.761-2.64-.279 1.921 4.028 2.185 4.976m-56.138-45.378c-5.091-7.232-4.151-3.771 1.213.06 4.414 3.152 13.793 9.184 19.531 8.205 3.574-.609-5.804-10.118-6.677-11.147-2.32-2.736-10.131-6.605-13.927-5.357-9.492 3.118 5.839 15.947 12.169 14.867 3.303-.563-5.841-7.461-6.562-8.032-1.06-.84 3.69 2.133 2.688 3.04m-159.058-79.704c-.237-.714-7.197-18.847-6.751-11.015.329 5.765 8.429 11.211 13.271 13.097 9.769 3.806 4.749-14.683-2.696-16.423-3.263-.763-4.49 3.3-4.614 5.785-.182 3.659 6.065 8.504 9.239 9.923 5.136 2.298-9.182-19.485-4.566-6.04m-36.423-74.812c5.382 9.386 9.177 17.163 15.755 25.658 4.076 5.264 10.338 6.423 8.07-1.896-1.722-6.314-3.213-10.569-9.799-10.897-4.215-.21-5.366 5.573-3.484 8.884 1.202 2.113 9.365 10.415 10.931 5.816 1.074-3.155-2.178-15.193-5.928-8.541-2.227 3.949 3.892 8.187 2.529 3.505-2.242-7.695-.466-1.361 1.349 2.771m-28.295-91.44c-1.274-.973-6.262-6.636-8.193-6.492-2.688.201-.439 5.391.224 6.365 7.078 10.407 12.754-.67 6.114-6.049-4.297-3.481-2.145 3.516-1.921 3.284.639-.661-1.025-3.049-1.747-2.926-.781.133-.629 7.201-.666 7.943m19.093-114.629c10.929 16.528 20.781 33.759 32.534 49.746 8.537 11.613 13.721 25.687 23.399 36.38 11.079 12.24 20.257 25.271 33.182 35.38 4.04 3.16 7.681 7.089 12.684 8.608 5.461 1.658 11.79.907 16.95 3.007 13.72 5.583 21.642 18.033 29.8 30.008 7.452 10.939 16.838 21.567 26.098 31.04 10.244 10.478 22.876 22.862 35.605 30.161 8.279 4.748 16.038 10.556 24.538 14.876 9.033 4.591 18.556 8.188 27.545 12.862 22.344 11.62 46.234 21.364 70.098 29.717 12.217 4.277 25.874 9.428 37.213 15.507 4.973 2.667 14.259 5.307 19.797 5.583 7.85.391 17.636 4.842 24.516 8.521 9.7 5.185 44.348 17.415 52.918 24.535" stroke="#5271FF" stroke-width="2" stroke-linecap="round"/><path fill-rule="evenodd" clip-rule="evenodd" d="M200.532 738.083a1.216 1.216 0 011.69.312c9.3 13.505 22.029 20.916 37.715 25.153 6.008 1.623 11.435 2.367 17.655 2.677 1.601.08 3.157-.05 4.777-.221l.836-.091c1.346-.148 2.752-.302 4.191-.345 3.531-.106 6.497.864 9.268 2.073 1.036.452 2.013.921 2.978 1.383 1.695.813 3.352 1.607 5.214 2.259l3.066 1.076c14.859 5.223 29.032 10.206 44.856 10.994 4.666.232 9.273.64 13.839 1.044 2.251.199 4.492.397 6.726.573 6.794.535 22.218 1.294 29.261.865a1.215 1.215 0 011.287 1.139c.041.67-9.099.823-9.769.864-7.21.44-14.135.093-20.97-.445-2.284-.18-4.55-.381-6.813-.581-4.537-.401-9.06-.802-13.682-1.032-16.191-.806-30.68-5.902-45.472-11.104-1.042-.366-2.086-.734-3.132-1.1-1.97-.689-3.863-1.594-5.648-2.447a87.104 87.104 0 00-2.713-1.26c-2.622-1.145-5.206-1.963-8.223-1.872-1.334.04-2.626.182-3.969.329l-.875.094c-1.641.174-3.354.322-5.154.232-6.361-.317-11.963-1.082-18.168-2.758-16.092-4.347-29.377-12.028-39.082-26.121a1.215 1.215 0 01.311-1.69z" fill="#5271FF"/></svg>