<svg width="153" height="83" viewBox="0 0 153 83" fill="none" xmlns="http://www.w3.org/2000/svg"><path d="M152 44.359v4.349c0 3.58-.641 7.105-.971 10.658a40.755 40.755 0 01-.43 3.315c-.174.98-.421 1.96-.714 2.92-.193.65-.632 1.172-1.191 1.575-.458.32-.934.614-1.392.916-1.208.806-2.463.962-3.79.284-.596-.302-1.236-.522-1.859-.76-.962-.357-1.776-.925-2.481-1.666-3.745-3.984-7.555-7.903-10.622-12.462-.934-1.383-2.005-2.683-3.04-3.993-.275-.338-.623-.659-1.007-.86-.256-.138-.678-.165-.943-.046-.495.229-.962.568-1.374.925-2.216 1.886-4.679 3.424-7.096 5.027-.183.119-.375.256-.568.348-4.12 1.977-7.874 4.633-12.004 6.62-3.03 1.446-6.153 2.637-9.284 3.79-1.145.422-2.381.586-3.58.824-1.75.348-3.526.577-5.247 1.017-1.85.476-3.708.769-5.604.943-2.774.256-5.558.485-8.332.75-.147.02-.293.276-.403.44-.037.055 0 .23.055.284.989.897 1.996 1.776 2.967 2.692.576.54.97 1.227 1.117 2.014.412 2.271.174 4.441-1.026 6.456-.421.714-1.034 1.19-1.813 1.392-2.536.668-5.09.613-7.618.009-1.31-.312-2.481-1.008-3.507-1.886-1.611-1.374-3.232-2.738-4.807-4.167-1.492-1.355-2.839-2.838-3.837-4.614a11.24 11.24 0 00-.741-1.118c-2.656-3.58-2.335-3.04-5.842-3.937-.75-.192-1.53-.339-2.243-.64a356.911 356.911 0 01-8.57-3.764c-1.118-.513-2.08-1.3-2.93-2.188a19.462 19.462 0 00-4.176-3.315c-.76-.449-1.438-1.053-2.143-1.593-.97-.742-1.94-1.502-2.912-2.244-1.419-1.09-2.82-2.188-4.257-3.25-1.53-1.126-3.095-2.189-4.633-3.297-.815-.585-1.658-1.144-2.381-1.83a50.08 50.08 0 00-5.998-4.799C2.44 37.876 1.056 35.697.067 33.17c-.165-.42-.01-.888.284-1.254a9.207 9.207 0 012.509-2.18c3.36-1.977 6.72-3.964 10.109-5.905.87-.494 1.83-.815 2.746-1.227 1.017-.458 2.052-.88 3.04-1.392a35.493 35.493 0 0111.4-3.69 93.453 93.453 0 005.274-.934 61.25 61.25 0 0113.616-1.245c.448.01.906.037 1.337-.046.42-.082.97-.183 1.208-.485 1.19-1.502 2.921-2.372 4.148-3.855a51.946 51.946 0 003.223-4.258C62.056 2.13 68.054-.554 73.474.096c1.538.184 2.747.907 3.763 1.978.788.833 1.218 1.877 1.163 3.05-.055 1.226-.119 2.444-.76 3.561-.33.577-.567 1.209-.842 1.822-.788 1.758-1.868 3.287-3.315 4.57-.412.357-.769.787-1.09 1.226-.073.092.056.495.184.55.503.229 1.025.458 1.556.53 2.766.367 5.53.678 8.305.999.888.1 1.777.201 2.665.256a9.641 9.641 0 014.12 1.245c.77.43 1.612.76 2.436 1.081 3.424 1.346 6.858 2.665 10.264 4.038.925.375 1.822.852 2.674 1.373 3.232 1.978 6.446 3.983 9.669 5.989.824.513 3.168 2.71 3.892 3.626a61.917 61.917 0 014.733 6.876c.339.577.742 1.108 1.117 1.657.138.202.696.32.916.193.476-.284.98-.54 1.419-.87 4.615-3.516 9.01-7.298 13.295-11.208 2.134-1.95 4.396-3.772 6.886-5.283.577-.348 1.181-.64 1.877-.632.458.01.861.202 1.145.577.064.092.137.183.174.284 1.153 3.269 2.142 6.583 2.271 10.081.073 2.225-.001 4.46.009 6.694zM35.072 60.117c.494.348.989.824 1.575 1.09 2.344 1.034 4.697 2.05 7.096 2.957 1.245.467 2.573.714 3.873 1.025.87.211 1.768.284 2.62.56 2.801.896 5.695 1.006 8.588 1.089 3.79.1 7.581.146 11.363.238 3.919.1 7.792-.376 11.61-1.172 2.62-.55 5.22-1.145 7.866-1.52a14.364 14.364 0 002.902-.742c2.097-.76 4.157-1.593 6.227-2.408a25.09 25.09 0 001.831-.797c3.186-1.593 6.281-3.36 9.312-5.246.476-.293.943-.614 1.447-.843 3.378-1.547 6.281-3.809 9.147-6.116 1.804-1.447 2.143-1.511.778-3.754-.86-1.42-1.694-2.857-2.692-4.185-.403-.53-.815-1.071-1.117-1.666-1.089-2.18-2.875-3.718-4.853-4.963-3.763-2.39-7.627-4.606-11.473-6.867a26.623 26.623 0 00-6.135-2.62c-2.893-.832-5.722-1.849-8.46-3.103-1.236-.568-2.509-.852-3.855-.998-3.433-.376-6.858-.834-10.292-1.245-3.095-.376-6.153-.98-9.303-.925-1.098.018-2.206-.275-3.296-.495a26.49 26.49 0 00-5.64-.503c-3.123.045-6.236.256-9.349.366-3.919.128-7.746.86-11.583 1.502-.65.11-1.282.375-1.904.595-.614.22-.852 1.126-.45 1.684.257.358.523.724.852 1.017a63.43 63.43 0 002.564 2.143c.953.76 1.868 1.602 2.921 2.215 1.575.916 2.875 2.088 4.038 3.462 2.234 2.637 4.578 5.173 7.151 7.49.165.146.312.32.486.457 1.007.797 1.538 1.877 1.932 3.059.43 1.281.567 2.6.595 3.946.027 1.41-.43 2.628-1.328 3.68a20.111 20.111 0 01-1.63 1.676c-.906.825-1.858 1.603-2.774 2.409a26.485 26.485 0 01-4.633 3.278c-1.648.924-3.242 1.95-4.862 2.948-.467.265-.944.568-1.145 1.282zm14.641-15.603c0-.22.028-.558-.009-.888-.192-1.941-.879-3.59-2.353-5-2.417-2.307-4.688-4.752-6.959-7.205-1.447-1.566-2.948-3.04-4.88-4.002a3.862 3.862 0 01-.834-.55 28.862 28.862 0 00-5.118-3.735c-.714-.403-1.099-1.071-1.181-1.914-.028-.32-.074-.696-.257-.924-.311-.376-.842-.34-1.254-.211-1.373.44-2.747.897-4.084 1.447-1.547.631-3.049 1.364-4.569 2.042-2.848 1.263-5.686 2.572-8.387 4.138a307.616 307.616 0 00-6.016 3.608 9.957 9.957 0 00-1.337.998c-.586.504-.65 1.52-.22 2.143.916 1.3 2.106 2.307 3.398 3.186 1.758 1.2 3.36 2.573 4.917 4.01 1.556 1.438 3.204 2.766 5.063 3.81.577.33 1.108.741 1.657 1.126 4.286 3.012 8.095 6.629 12.49 9.504.55.357 1.007.88 1.501 1.319.34.293.66.604 1.026.86.375.257.824.376 1.263.156 1.19-.595 2.454-1.007 3.517-1.886a12.85 12.85 0 012.82-1.776c3.205-1.484 5.603-4.011 8.186-6.282 1.09-.961 1.748-2.28 1.62-3.974zM71.13 2.102c-2.261.21-5.063.769-7.517 2.518-1.282.915-2.408 1.932-3.278 3.26-1.392 2.142-2.876 4.23-4.707 6.034-.073.073-.155.21-.128.293.055.192.128.466.275.54.284.137.632.247.952.229 3.48-.248 6.877.293 10.255 1.034.65.147 1.31.275 1.978.312.421.018.916-.046 1.282-.247 1.694-.944 3.058-2.29 3.928-3.984.86-1.675 1.502-3.47 2.115-5.255.55-1.612-.348-3.425-1.913-4.176-.825-.393-1.685-.604-3.242-.558zM58.357 68.385h-5.1c-.44 0-.77.568-.595.962.787 1.748 1.895 3.268 3.241 4.624 1.492 1.501 3.095 2.875 4.715 4.239 2.775 2.326 5.943 2.875 9.395 2.417 1.117-.146 2.078-1.044 2.317-2.133.256-1.209.33-2.436.119-3.654-.092-.53-.34-1.053-.614-1.529-.513-.888-1.282-1.529-2.18-2.014a135.55 135.55 0 00-4.43-2.308c-.385-.192-.852-.256-1.292-.293-1.776-.119-3.553-.201-5.576-.31zm92.123-25.134h.128c0-1.438.009-2.885-.009-4.322-.009-.44-.074-.88-.128-1.319-.092-.714-.797-1.062-1.511-.741-.403.183-.815.357-1.181.595-3.736 2.417-7.591 4.587-11.831 6.007-.421.137-.805.375-1.199.567-1.3.623-2.619 1.209-3.727 2.161-.302.257-.311.833-.045 1.19.421.559.979.88 1.639 1.053 2.902.797 5.887 1.072 8.872 1.328 2.207.183 4.423.302 6.638.43.44.028.898.055 1.319-.064.275-.073.604-.348.705-.604a5.174 5.174 0 00.321-1.611c.036-1.566.009-3.114.009-4.67zm-9.935 8.35c-.604-.055-1.273-.119-1.941-.155a292.947 292.947 0 00-4.002-.21c-.091 0-.256.063-.265.118-.028.21-.101.504 0 .623 1.144 1.218 2.133 2.564 3.15 3.882.952 1.245 1.941 2.436 3.25 3.333.54.376.989.897 1.456 1.373 1.099 1.108 2.189 2.226 3.296 3.333.312.312.66.605.998.889.641.53 1.575.228 1.887-.605.119-.311.256-.622.32-.952.586-2.838 1.007-5.704 1.181-8.607.092-1.465-.219-2.225-1.941-2.555a19.812 19.812 0 00-2.655-.302c-1.548-.1-3.113-.119-4.734-.165zm7.151-22.296c-.247.055-.604.046-.879.193-1.749.98-3.324 2.188-4.862 3.47-3.928 3.25-7.417 6.995-11.51 10.054-.082.064-.192.156-.21.247-.046.183-.055.385-.046.577 0 .027.192.092.266.064 2.353-.97 4.706-1.941 7.05-2.94a45.58 45.58 0 003.315-1.556c1.767-.925 3.543-1.895 4.962-3.315.815-.814 1.704-1.391 2.766-1.757.201-.074.412-.184.558-.34.147-.155.284-.375.293-.576.101-1.502-.357-2.82-1.318-3.974-.064-.073-.202-.082-.385-.147zM129.704 51.29c.055.202.073.421.183.595 2.948 4.606 6.629 8.589 10.557 12.361.321.303.669.596 1.053.806.376.21.815.348 1.236.43.156.037.385-.146.541-.274.055-.046.055-.23.009-.32-.202-.385-.357-.834-.66-1.118-1.126-1.071-2.298-2.087-3.461-3.113-1.254-1.099-2.481-2.234-3.424-3.617-1.52-2.216-3.544-3.955-5.457-5.796a.443.443 0 00-.303-.091c-.091.009-.183.091-.274.137z" fill="#5271FF"/><path d="M25.522 28.298c.311.101.65.156.925.312 1.044.586 1.602 1.492 1.62 2.692.01.824-.31 1.51-1.007 1.977-1.446.962-2.957 1.072-3.974-1.208-.631-1.42.01-2.94 1.456-3.553.302-.119.641-.146.98-.22z" fill="#5271FF"/></svg>