<svg width="287" height="111" viewBox="0 0 287 111" fill="none" xmlns="http://www.w3.org/2000/svg"><path d="M138.949 110.056c4.991-.385 9.807-1.548 14.605-2.894 2.628-.732 5.091-1.831 7.362-3.36 2.335-1.575 4.788-2.976 7.261-4.34 3.955-2.18 7.828-4.505 11.372-7.353.879-.705 1.831-1.327 2.747-1.987 1.84-1.309 3.708-2.582 5.512-3.937 1.172-.879 2.326-1.785 3.617-2.509.476-.265.97-.64 1.263-1.09.614-.942 1.438-1.318 2.528-1.437 1.455-.156 2.893-.44 4.34-.705 4.779-.86 9.559-1.73 14.33-2.619 7.554-1.4 15.099-2.81 22.643-4.248 2.665-.504 5.302-1.145 8.012-1.374.779-.064 1.548-.338 2.308-.53 3.497-.907 7.004-1.805 10.411-2.986 2.334-.815 4.596-1.886 6.821-2.985 3.663-1.804 7.005-4.139 10.283-6.547 2.271-1.675 4.459-3.47 6.693-5.182 1.172-.898 2.198-1.941 3.15-3.068.797-.952 1.657-1.85 2.481-2.774.229-.256.247-.98.074-1.291-.605-1.108-1.456-2.015-2.418-2.802-2.014-1.639-4.047-3.26-6.07-4.89-.879-.705-1.749-1.419-2.628-2.133-2.555-2.07-5.311-3.818-8.159-5.448-3.067-1.749-6.336-2.94-9.742-3.837-1.081-.283-2.317-.348-3.132-1.18-.75-.77-1.483-.788-2.444-.65-.751.11-1.584-.065-2.326-.294-3.132-.98-6.364-1.538-9.541-2.307-3.535-.861-7.106-1.209-10.695-1.657-6.629-.825-13.277-1.21-19.943-1.456-.228-.01-.457 0-.677-.028-3.608-.531-7.206-.21-10.823-.046-2.372.101-4.743.046-7.115.074a55.49 55.49 0 00-3.049.11c-1.163.073-2.298.11-2.875-1.2-.494-.256-.97-.558-1.483-.76-1.676-.668-3.37-1.291-5.054-1.96-.522-.21-1.008-.494-1.52-.741-.907-.449-1.813-.916-2.738-1.337-1.337-.595-2.701-1.154-4.047-1.721-.623-.266-1.236-.568-1.877-.788-2.454-.851-4.927-1.63-7.362-2.527-2.546-.934-5.109-1.813-7.554-3.003-3.379-1.658-6.987-2.564-10.704-3.05-1.456-.192-2.93-.347-4.349-.695-3.956-.98-7.985-1.474-11.995-2.143-3.507-.595-6.977-.458-10.439.293-.769.165-1.52.421-2.28.65-.778.238-1.391.724-1.941 1.31-1.318 1.4-1.373 2.27-.219 3.882 1.565 2.18 3.717 3.617 6.098 4.725 2.966 1.382 5.988 2.655 8.982 3.983 2.07.915 4.203 1.639 6.391 2.225 3.709.998 7.39 2.106 10.933 3.616 1.547.66 3.15 1.264 4.478 2.363.155.128.293.403.265.586-.027.174-.247.403-.43.458-1.52.42-3.031.925-4.578 1.2-5.348.924-10.64 2.069-15.942 3.213-3.424.742-6.876 1.31-10.2 2.445-3.058.293-5.897 1.51-8.9 2.07-2.674.494-5.219 1.455-7.765 2.389-3.818 1.4-7.618 2.83-11.436 4.23-4.77 1.74-9.523 3.544-14.21 5.494-1.979.824-3.984 1.602-5.97 2.4-3.572 1.437-6.978 3.195-10.274 5.19-1.447.87-2.967 1.64-4.478 2.381-2.234 1.1-4.514 2.079-6.602 3.452a6 6 0 01-1.208.614c-1.502.568-2.83 1.373-3.9 2.6-.367.412-.862.742-1.347 1.017a3.01 3.01 0 01-1.273.403c-.787.045-1.575-.028-2.371-.037-.595-.01-1.145-.192-1.53-.614-1.345-1.446-3.085-2.243-4.816-3.076-1.217-.586-2.454-1.163-3.598-1.886-2.6-1.64-5.412-2.802-8.305-3.782-.43-.146-.87-.256-1.282-.44-3.214-1.455-6.666-2.096-10.072-2.893-2.445-.577-4.706-.1-6.876 1.044-1.19.632-1.649 1.96-1.145 3.186.897 2.198 2.307 3.864 4.67 4.57.97.283 1.923.668 2.92.879 4.973 1.052 9.853 2.48 14.89 3.24 2.114.321 4.184.944 6.299 1.338 1.437.265 2.911.348 4.358.54.193.027.376.201.54.33.156.119-.018.686-.274.906-.257.22-.495.467-.77.66-.366.265-.75.512-1.144.732-1.895 1.071-3.489 2.509-4.862 4.175a15.966 15.966 0 01-2.94 2.784c-2.938 2.151-5.328 4.88-7.837 7.48-.76.788-1.227 1.887-1.73 2.885-.623 1.254-.715 2.6-.376 3.965.165.659.284 1.336.54 1.95.165.394.494.796.852 1.007 1.217.705 2.536.934 3.91.43.32-.119.64-.22.943-.375 2.627-1.31 5.219-2.692 7.627-4.395a9.082 9.082 0 002.536-2.683c2.07-3.37 4.029-6.803 5.622-10.43.32-.722.595-1.464.962-2.17.512-.997.787-2.242 1.794-2.81.852-.476 1.905-.614 2.885-.843.43-.1.906-.128 1.337-.064 2.343.33 4.688.687 7.022 1.072 1.676.284 3.297.76 4.863 1.428a42.404 42.404 0 009.046 2.774c2.436.449 4.807 1.264 7.17 2.006 1.95.613 3.91 1.07 5.924 1.419a225.325 225.325 0 0019.155 2.436c4.166.357 8.305.915 12.462 1.272 7.206.632 14.412 1.163 21.664.843 4.743-.21 9.486.137 14.229.357 3.278.155 6.547.247 9.825.201 2.023-.027 4.065-.11 6.071.275.274.055.393.229.348.494-.019.101-.037.238-.101.293-.339.293-.669.614-1.053.834-1.081.613-2.161 1.245-3.287 1.758-2.994 1.373-5.806 3.03-8.397 5.072-.796.632-1.675 1.145-2.499 1.75-1.557 1.144-3.205 2.123-5.009 2.82-2.472.96-4.514 2.526-6.364 4.404-.806.814-1.501 1.693-1.996 2.719-.687 1.438-.632 2.848.33 4.157.329.449.732.861 1.126 1.264a4.286 4.286 0 003.031 1.309c.86.027 1.648-.037 2.435-.064zM59.517 62.772c-.21.257-.375.586-.64.76-.468.302-.999.531-1.511.75-.825.367-1.667.688-2.482 1.063-.128.055-.155.348-.201.531-.01.037.192.174.265.147 1.96-.54 3.91-1.09 5.87-1.64 1.09-.301 2.197-.53 3.342-.43 3.836.339 7.673.129 11.519.064 2.142-.036 4.275.101 6.409.504 4.77.888 9.568 1.666 14.348 2.509 2.784.485 5.54 1.062 8.232 1.96a33.431 33.431 0 006.272 1.419c.558.073 1.126.137 1.666.283 3.516.944 7.142 1.154 10.723 1.53 5.164.549 10.328 1.107 15.474 1.85 2.902.411 5.842.76 8.772.823 5.649.128 11.299.12 16.948 0 5.87-.128 11.739-.485 17.617-.403 3.498.046 6.996-.073 10.475-.604 2.564-.394 5.164-.568 7.756-.806 3.598-.33 7.206-.577 10.804-.943 2.582-.265 5.174-.558 7.728-1.016a339.181 339.181 0 0017.91-3.7c.659-.155 1.31-.366 1.978-.457 1.355-.183 2.637-.623 3.901-1.117 1.153-.449 2.307-.916 3.461-1.383 2.106-.87 4.047-2.014 5.732-3.562 2.857-2.628 2.719-2.316 4.065 1.071.33.834.788 1.621 1.172 2.436.193.403.357.824.504 1.254.128.367-.073.678-.339.88a5.24 5.24 0 01-1.172.65c-2.967 1.098-6.016 1.932-9.092 2.683-3.077.76-6.199 1.236-9.322 1.72-3.342.523-6.638 1.347-9.989 1.86-2.674.412-5.375.714-7.994 1.446-.65.184-1.328.248-1.996.367-3.113.549-6.235 1.09-9.349 1.648-3.333.595-6.665 1.19-9.989 1.84-3.562.696-7.161.97-10.777 1.154-1.694.082-3.388.128-5.082.238-4.734.293-9.468.66-14.211.888-5.979.284-11.977.339-17.965.247-3.727-.055-7.462-.1-11.18-.338a117.582 117.582 0 00-9.825-.23c-3.726.083-7.462.193-11.18-.173-3.708-.367-7.416-.788-11.125-1.181a922.873 922.873 0 00-7.078-.715c-2.362-.229-4.724-.42-7.087-.659-2.023-.201-4.038-.467-6.061-.66-3.828-.356-7.628-.942-11.4-1.647-1.218-.23-2.408-.596-3.608-.916-3.168-.833-6.272-1.895-9.504-2.472-1.328-.238-2.619-.66-3.892-1.154-3.58-1.383-7.178-2.729-11.006-3.315a.903.903 0 01-.31-.11c-.093-.054-.248-.173-.239-.228.046-.193.1-.476.247-.55 2.518-1.3 5.256-2.042 7.902-3.012 1.484-.54 2.967-1.117 4.597-1.117.091-.037.183-.083.284-.101.055-.018.128 0 .192 0-.183.046-.376.055-.559.064zm-7.252-4.001c3.947-2.418 8.132-4.414 12.16-6.694 4.221-2.398 8.717-4.276 13.24-6.034 3.901-1.51 7.793-3.03 11.72-4.459 4.881-1.776 9.807-3.443 14.688-5.219 3.836-1.401 7.828-2.18 11.747-3.241 2.289-.623 4.606-1.127 6.922-1.603 6.969-1.437 13.955-2.774 20.914-4.267 6.19-1.327 12.434-2.289 18.725-3.049 1.565-.192 3.14-.412 4.715-.54 3.938-.32 7.884-.586 11.83-.879a53.12 53.12 0 001.685-.174c5.613-.586 11.226-1.346 16.894-1.053.338.018.677-.01 1.016-.018 4.523-.183 9.038-.064 13.552.247 5.182.357 10.365.705 15.547 1.08.788.055 1.566.22 2.344.312 2.692.32 5.329.97 8.003 1.428 3.571.604 7.087 1.429 10.566 2.38 3.306.898 2.93.797 2.518 3.91-.027.22-.064.45-.119.669-.155.714-.567 1.264-1.226 1.51-2.106.807-4.13 1.823-6.401 2.134-1.904.266-3.8.54-5.686.916-3.443.677-6.895 1.19-10.411 1.163a32.277 32.277 0 00-3.388.146c-5.173.531-10.356.815-15.538 1.145-1.575.1-3.15.293-4.725.412a59.715 59.715 0 01-3.379.192c-5.191.092-10.383.22-15.575.559-5.072.32-10.154.42-15.218.86-3.149.266-6.308.44-9.458.77-5.055.53-10.091 1.208-15.163 1.584-4.386.33-8.726 1.217-13.149 1.227-.558 0-1.117.128-1.685.201l-9.412 1.126c-.559.064-1.127.12-1.685.193-2.573.348-5.137.75-7.719 1.034-4.038.449-8.085.87-12.096 1.548-3.223.549-6.455 1.108-9.669 1.684-4.111.742-8.204 1.548-12.315 2.262a73.768 73.768 0 00-9.22 2.188c-4.103 1.264-8.177 2.6-12.27 3.892-1.08.339-2.18.632-3.315.403l.027.183.01-.128zm198.667-18.908c.074 2.07.092 3.433.174 4.78.074 1.245-.402 2.206-1.391 2.911-.733.522-1.475 1.044-2.28 1.456-1.603.833-3.251 1.575-4.881 2.362-1.025.495-2.106.797-3.186 1.108-4.249 1.227-8.644 1.694-12.966 2.51-4.12.768-8.314.814-12.471 1.318-2.582.311-5.173.522-7.764.686-3.379.22-6.776.312-10.155.513-10.044.605-20.098.696-30.152.733-2.033.009-4.065-.174-6.089-.275-.677-.037-1.355-.092-2.033-.119-3.607-.137-7.224-.256-10.832-.421-3.726-.165-7.444-.376-11.171-.559-1.126-.055-2.27.01-3.387-.155-3.379-.495-6.767-.312-10.155-.294-2.142.01-4.285.138-6.428.193-1.694.037-3.388.046-5.082.064-1.355.018-2.71.064-4.065.046-5.988-.092-11.977-.101-17.956.284-5.072.32-10.127.87-15.2 1.236-2.37.174-4.724.53-7.04.989a91.709 91.709 0 00-16.84 5.081c-2.087.861-4.193 1.676-6.29 2.51-.65.256-1.31.347-1.987.173-.201-.055-.476-.165-.53-.32-.056-.156.054-.449.192-.586.238-.23.53-.43.833-.568 1.758-.77 3.507-1.575 5.292-2.253 3.058-1.162 6.19-2.142 9.22-3.378 2.84-1.154 5.797-1.895 8.68-2.884 4.387-1.502 8.855-2.738 13.415-3.59 4.88-.915 9.76-1.886 14.669-2.655 5.246-.824 10.475-1.74 15.767-2.27 4.386-.44 8.763-.944 13.13-1.52 6.611-.87 13.241-1.503 19.861-2.272 5.045-.595 10.127-.943 15.19-1.428 1.795-.174 3.589-.458 5.393-.577 3.947-.247 7.856-.925 11.83-.87.898.01 1.804-.137 2.702-.201 1.913-.147 3.827-.339 5.75-.412 5.53-.202 11.07-.302 16.6-.531 6.776-.284 13.534-.76 20.291-1.3 4.047-.321 8.103-.678 12.178-.715 1.016-.009 2.033-.137 3.031-.293 2.124-.33 4.23-.778 6.354-1.062 2.811-.385 5.54-1.044 8.14-2.188.202-.092.44-.101.66-.147.229-.055.732.293.769.54.073.44.183.88.192 1.328.037 1.255.018 2.5.018 3.022zM73.417 62.333v.045c-1.126.046-2.27-.009-3.379.174-2.16.357-4.267.019-6.391-.274-.092-.01-.256-.174-.247-.21.082-.184.165-.459.311-.495a58.015 58.015 0 0110.97-2.024c4.385-.375 8.78-.723 13.175-1.044a154.94 154.94 0 017.436-.394c2.48-.073 4.972.019 7.453-.045 5.759-.129 11.519.073 17.278-.266 2.143-.128 4.294-.1 6.437-.009 7.105.293 14.211.632 21.316.989 3.159.155 6.309.53 9.468.595 6.776.137 13.551.21 20.327.183 7.225-.027 14.458-.009 21.673-.577a18.88 18.88 0 012.033-.073c2.949.073 5.86-.265 8.79-.504.678-.054 1.346-.164 2.024-.192 4.294-.192 8.543-.732 12.791-1.327 3.471-.486 6.932-.998 10.375-1.612 4.12-.733 8.167-1.749 11.83-3.91.384-.229.796-.421 1.208-.613 2.976-1.429 3.05-2.106 4.02 1.52.229.86.659 1.675 1.035 2.5.412.906.375 1.702-.33 2.49-1.914 2.124-4.102 3.892-6.712 5.073-3.186 1.437-6.372 2.911-9.907 3.378-1.117.147-2.206.486-3.305.733-4.084.888-8.159 1.813-12.252 2.646-2.206.449-4.44.842-6.684 1.099-3.25.366-6.528.558-9.788.86-4.386.412-8.763.88-13.149 1.282-3.479.32-6.949.834-10.465.733-2.711-.082-5.421-.018-8.131.018-7.792.092-15.585.22-23.377.293-3.388.028-6.766-.165-10.127-.686-5.027-.788-10.09-1.237-15.154-1.649a45.504 45.504 0 01-3.36-.384 618.607 618.607 0 01-10.686-1.777c-1.666-.293-3.323-.677-4.898-1.327-3.37-1.401-6.94-1.96-10.53-2.427-2.014-.256-4.029-.53-6.025-.888-2.106-.384-4.203-.851-6.29-1.346a21.054 21.054 0 00-5.714-.54c-1.016.018-2.033-.018-3.05-.018zm78.379-38.42c-1.328-1.676-1.319-1.713-2.399-2.217-1.639-.76-3.26-1.565-4.954-2.179-2.637-.961-5.338-1.758-8.002-2.646-2.784-.925-5.595-1.767-8.315-2.857-1.455-.586-2.884-1.282-4.376-1.749-2.5-.778-4.743-2.097-7.042-3.278-1.318-.677-2.389-1.685-3.223-2.93-.668-.998-.412-2.335.641-2.939a6.844 6.844 0 011.868-.732c4.24-.98 8.507-.907 12.773-.175 4.222.724 8.397 1.694 12.655 2.244 3.598.458 7.087 1.337 10.401 2.838.724.32 1.447.632 2.189.898 4.66 1.712 9.339 3.37 13.972 5.136a87.847 87.847 0 017.445 3.233c1.721.842 3.387 1.785 5.191 2.454.586.22 1.548.412 1.465 1.153-.11 1.035-1.19.824-1.913.898-2.692.284-5.403.412-8.076.778-3.8.522-7.673.275-11.428 1.126-.219.046-.448 0-.677.028-1.456.174-2.912.357-4.359.521-1.236.138-2.472.257-3.836.394zm100.675 15.62c.155-3.022.284-5.613.439-8.195.028-.448.147-.888.257-1.328.21-.879.915-1.391 1.748-1.172 2.18.577 4.359 1.136 6.492 1.84 3.343 1.1 6.318 2.95 9.294 4.79 4.423 2.737 8.406 6.061 12.471 9.284.522.412.952.953 1.41 1.447.302.33.348.934.11 1.254-1.968 2.628-4.093 5.091-6.803 6.996-2.674 1.877-5.32 3.8-8.003 5.668-2.591 1.813-5.384 3.287-8.241 4.642-1.162.55-1.748.33-2.627-.75-.724-.889-1.191-1.933-1.493-3.013-.76-2.729-1.813-5.33-2.939-7.911-.595-1.346-.962-2.747-1.044-4.24-.064-1.117-.32-2.225-.449-3.351-.238-2.133-.448-4.267-.622-5.96zm-75.22 42.779c.531-.055.979-.12 1.428-.147 2.701-.137 5.412-.274 8.113-.375.43-.018.888.12 1.3.275.146.055.302.42.247.558-.156.403-.339.88-.659 1.136a101.694 101.694 0 01-4.029 3.076c-1.914 1.392-3.928 2.656-5.778 4.13-3.552 2.829-7.416 5.136-11.409 7.252a59.317 59.317 0 00-4.944 2.921c-.751.494-1.529.961-2.262 1.492-1.199.879-2.536 1.438-3.919 1.96-4.239 1.611-8.662 2.545-13.102 3.342-1.768.32-3.59.375-5.384.393-1.53.019-2.5-.989-3.068-2.298-.485-1.099-.311-2.225.449-3.196 1.776-2.252 3.937-4.083 6.583-5.173 2.637-1.09 5.009-2.564 7.252-4.285.449-.348.907-.669 1.374-.99 1.849-1.3 3.754-2.48 5.796-3.46 2.435-1.172 4.798-2.509 7.178-3.79.595-.321 1.227-.633 1.703-1.09.971-.925 2.134-1.19 3.407-1.246 3.268-.146 6.537-.32 9.724-.485zM15.493 88.51c-.036-1.328.046-1.722.458-2.61.577-1.236 1.264-2.38 2.262-3.333.815-.778 1.62-1.575 2.344-2.435 1.318-1.566 2.838-2.885 4.514-4.038 1.31-.898 2.49-1.923 3.48-3.178.85-1.07 1.867-1.94 3.094-2.563 1.218-.614 2.253-1.484 3.26-2.39a31.826 31.826 0 011.804-1.53c.165-.127.403-.173.613-.228.101-.028.275-.028.32.036.129.165.33.422.275.54-1.153 2.436-2.463 4.79-3.442 7.307-1.484 3.791-3.645 7.225-5.833 10.64-.412.65-.962 1.291-1.602 1.703a156.639 156.639 0 01-6.895 4.258c-.66.385-1.456.586-2.216.77-.87.21-1.895-.45-2.106-1.292-.183-.64-.266-1.31-.33-1.657zM6.95 52.48c.669.063 1.346.09 2.015.182a30.03 30.03 0 016.83 1.84c1.255.505 2.51 1.045 3.81 1.365 1.776.44 3.406 1.181 4.971 2.07 2.647 1.501 5.265 3.04 8.049 4.266.494.22.934.605 1.346.971.11.1.064.412.055.614-.01.082-.12.183-.202.22-.21.082-.42.137-.64.182-1.145.23-2.235-.055-3.333-.302-2.857-.632-5.723-1.218-8.58-1.868a989.965 989.965 0 01-13.478-3.15c-1.08-.265-2.134-.714-3.15-1.18-1.053-.495-1.786-1.338-2.225-2.436-.21-.522-.037-1.209.403-1.511 1.236-.88 2.61-1.264 4.13-1.264z" fill="#5271FF"/><path d="M69.708 67.68c-.97-.01-1.748.32-2.27 1.172-.357.595-.293 1.428.146 1.868.733.723 1.566 1.254 2.555 1.547.778.23 1.547.147 2.28-.21.851-.412 1.364-1.703.97-2.582-.128-.293-.32-.605-.576-.797-.907-.714-1.933-1.117-3.105-.998zm24.338 8.067c.074-.01.43-.019.724-.147.998-.457 1.74-1.575.97-2.756-.668-1.025-1.593-1.547-2.82-1.52-1.062.028-1.904.779-2.023 1.868-.037.312.018.687.164.962.577 1.08 1.447 1.703 2.985 1.593zm11.061-2.527c-.879-.055-1.794.512-2.133 1.336a1.295 1.295 0 00-.101.32c-.266 1.713 1.538 3.334 3.205 2.876.732-.201 1.437-1.245 1.419-2.097-.046-1.181-1.199-2.362-2.39-2.436zm-25.18-.87c.055.238.082.586.21.888.275.677.816 1.062 1.539 1.126.33.027.678.018.998-.055.897-.201 1.804-.485 2.014-1.53.202-1.015-.503-1.665-1.2-2.251a2.13 2.13 0 00-.585-.321c-1.2-.485-3.05.01-2.976 2.143zm189.447-25.51c.027-.687-.074-1.337-.596-1.84-.393-.385-.787-.797-1.254-1.09-.238-.147-.668-.165-.925-.055-1.227.53-1.95 1.447-1.895 2.848.036.952.741 1.758 1.63 1.803.549.028 1.108.028 1.666-.027.769-.083 1.337-.788 1.374-1.64z" fill="#5271FF"/></svg>