<svg width="187" height="93" viewBox="0 0 187 93" fill="none" xmlns="http://www.w3.org/2000/svg"><path d="M53.982 22.335c1.785 0 3.571-.018 5.357.009.888.01 1.776.073 2.664.165 2.216.22 4.432.604 6.657.668 4.935.156 9.742 1.062 14.531 2.152 4.139.934 8.26 1.923 12.251 3.37.834.302 1.694.604 2.564.769 3.663.714 6.95 2.371 10.265 3.955.604.284 1.199.605 1.822.834 3.442 1.3 6.702 3.012 10.044 4.541a60.389 60.389 0 016.474 3.489 157.162 157.162 0 005.787 3.35c.778.431 1.62.752 2.444 1.09.678.284 1.328.175 1.896-.265.787-.614 1.575-1.245 2.298-1.941a28.735 28.735 0 015.915-4.35c.879-.485 1.712-1.062 2.601-1.51 1.611-.815 2.975-1.932 4.321-3.123 2.848-2.527 5.915-4.724 9.56-6.015 2.838-1.008 5.658-2.06 8.561-2.875 1.95-.55 3.919-.843 5.924-1.017 3.26-.265 5.86 1.044 8.03 3.351.458.486.779 1.09 1.218 1.594 2.17 2.463 1.648 6.94-.449 9.284-1.52 1.703-3.369 2.921-5.402 3.864-2.225 1.026-4.468 2.015-6.858 2.619-.43.11-.842.275-1.264.43-.32.12-.531.586-.348.806 2.061 2.49 4.084 5.009 6.209 7.444 1.19 1.364 2.197 2.811 2.801 4.514.605 1.703.641 3.498.87 5.265.046.32-.018.678-.128.99-1.529 4.138-2.362 5.063-6.327 5.2a13.55 13.55 0 01-2.655-.192c-3.654-.632-7.06-2.06-10.411-3.562-1.209-.54-2.326-1.328-3.388-2.133-3.718-2.848-7.499-5.604-11.775-7.6-1.209-.568-2.317-1.337-3.498-1.978-1.566-.852-3.141-1.703-4.743-2.472-.733-.358-1.291-.815-1.749-1.484-.366-.53-.879-.54-1.456-.146-.925.622-1.849 1.245-2.738 1.923-1.694 1.309-3.552 2.261-5.594 2.939-2.967.97-5.897 2.042-8.836 3.104-2.747.989-5.631 1.373-8.451 2.014-1.2.275-2.381.559-3.544.953a26.535 26.535 0 01-3.223.851c-1.969.403-3.928.87-5.796 1.612-1.254.503-2.555.76-3.891.915-2.555.302-5.1.559-7.674.531-2.005-.018-4.02.074-6.025.156-.659.028-1.327.174-1.977.311-.184.037-.486.284-.467.394.036.293.155.641.366.824.421.357.916.623 1.41.888 1.071.596 2.17 1.154 3.241 1.74 2.802 1.538 4.981 3.745 6.758 6.364.394.586.467 1.263.357 1.932-.174 1.117-.586 2.17-1.337 3.021-.348.403-.842.779-1.346.934a11.392 11.392 0 01-4.303.458 6.484 6.484 0 01-2.83-.943 52.562 52.562 0 00-3.516-1.932c-1.007-.504-2.088-.833-3.232-.696-.43.055-.843.257-1.245.421-.257.101-.385.696-.202.87.156.156.302.339.486.449 2.243 1.447 3.067 3.745 3.653 6.171.22.907.018 1.795-.467 2.573-.348.568-.824 1.053-1.254 1.566-.468.55-1.09.77-1.795.723-1.108-.082-2.243-.11-3.324-.32-2.838-.568-2.262.1-5.173-2.07-.623-.466-1.337-.824-1.941-1.318-1.127-.916-2.326-1.776-3.27-2.857-2.865-3.278-5.923-6.364-8.982-9.45-.705-.704-1.29-1.537-1.868-2.352-.64-.907-1.282-1.832-1.803-2.82-1.41-2.693-3.36-4.99-5.146-7.417-.953-1.31-2.18-2.262-3.736-2.683-1.64-.44-3.123-1.19-4.55-2.07-.193-.118-.385-.238-.587-.32-3.296-1.41-6.272-3.36-9.211-5.393-2.848-1.969-5.696-3.91-8.379-6.098a24.269 24.269 0 00-4.797-3.04c-2.976-1.42-5.403-3.535-7.573-5.97-.22-.248-.412-.531-.604-.797-.302-.421-.21-1.209.192-1.538 3.47-2.811 6.96-5.586 11.327-6.95.952-.293 1.904-.677 2.765-1.172 1.969-1.117 4.102-1.74 6.272-2.252.87-.202 1.74-.403 2.6-.641 3.562-.998 7.197-1.53 10.878-1.804 1.465-.11 2.811-.421 4.157-1.08 1.896-.925 3.92-1.594 5.897-2.345 2.335-.888 4.313-2.307 6.153-3.964 1.822-1.649 3.644-3.287 5.467-4.936 4.202-3.809 9.019-6.5 14.485-8.066 1.383-.394 2.72-1.008 4.047-1.585C76.946.085 79.565-.236 82.275.167c.843.128 1.392.604 1.813 1.319 1.227 2.096.687 4.294-.851 5.805-.797.778-1.667 1.474-2.5 2.216-.201.174-.018.75.247.833.32.091.632.247.962.265 1.895.147 3.781.257 5.677-.009.769-.11 1.556-.155 2.335-.247 2.774-.311 5.292.458 7.7 1.767 1.172.632 1.813 1.603 2.015 2.903.128.824-.101 1.556-.623 2.18-.284.338-.623.658-.998.878a176.02 176.02 0 01-4.954 2.793c-.586.311-1.227.53-1.858.741a164.81 164.81 0 01-4.14 1.337 2.73 2.73 0 01-.979.101c-.174-.018-.403-.21-.467-.375-.055-.165.018-.513.128-.568 1.2-.568 2.409-1.163 3.654-1.62 2.316-.861 4.45-2.061 6.592-3.26.385-.211.724-.532 1.026-.843.33-.339.375-.796.247-1.245a2.2 2.2 0 00-1.254-1.483c-2.271-1.008-4.615-1.676-7.142-1.246-2.546.43-5.11.467-7.674.357-.988-.045-1.986-.256-2.966-.44-.311-.063-.595-.283-.87-.475-.613-.43-.76-1.594-.247-2.088a11.95 11.95 0 011.282-1.062c.897-.66 1.84-1.264 2.71-1.96.842-.677 1.172-1.602 1.053-2.682-.1-.99-.604-1.658-1.657-1.813a7.755 7.755 0 00-3.947.402 124.11 124.11 0 01-5.384 1.832c-4.175 1.327-8.112 3.168-11.573 5.86-2.106 1.639-4.102 3.443-6.025 5.302-2.18 2.105-4.405 4.102-7.261 5.264-.193.074-.34.275-.486.44-.073.082-.174.22-.155.284.073.192.164.476.311.512.531.138 1.09.257 1.63.266 2.124.027 4.24.01 6.364.01-.028-.037-.028-.065-.028-.083zm54.792 13.908c-.247.944.449 1.694.495 2.592.045.952-.202 1.794-.907 2.417-.494.43-1.108.723-1.657 1.108-.357.247-.678.55-.943.769.045.742.476 1.117.833 1.53a14.93 14.93 0 012.243 3.305c.788 1.575.659 2.39-.604 3.552-.33.303-.696.559-1.035.843-.32.284-.293.842.064 1.163.33.293.705.549 1.035.851 1.209 1.126 1.895 2.454 1.52 4.166-.018.092.055.202.101.367.284.073.595.22.915.229 1.465.009 2.885-.34 4.258-.788 3.809-1.236 7.618-2.49 11.381-3.873 2.656-.98 4.844-2.72 6.685-4.862.265-.302.201-.99-.092-1.218-.265-.201-.513-.44-.797-.595-1.758-.97-3.525-1.914-5.283-2.866-.687-.366-1.437-.66-2.023-1.145-1.136-.943-2.445-1.547-3.727-2.215-1.786-.916-3.617-1.74-5.43-2.583-1.822-.842-3.653-1.657-5.484-2.472-.522-.229-1.053-.366-1.612-.183l-.064-.128.128.036zM47.618 24.258c-4.633.22-8.533.412-12.434.604-.33.018-.668.073-.998.119-4.423.613-8.781 1.566-13.121 2.6a23.247 23.247 0 00-5.027 1.813c-.99.495-2.042.898-3.104 1.237-3.69 1.162-6.85 3.213-9.715 5.759-.522.467-.522 1.227.018 1.776 1.264 1.264 2.527 2.518 4.13 3.379 1.474.788 2.902 1.666 4.376 2.463a20.796 20.796 0 013.343 2.225c.604.495 1.208.989 1.85 1.428 3.213 2.207 6.445 4.405 9.668 6.593a39.472 39.472 0 008.305 4.294c3.132 1.163 6.355 2.06 9.55 3.04.852.257 1.74.422 2.62.559 1.208.192 2.444.266 3.643.504 1.438.283 2.83.595 4.185-.348.32-.23.86-.147 1.3-.202.55-.073 1.126-.082 1.648-.229.99-.274 1.832-.787 2.408-1.684.22-.348.129-.962-.22-1.182-.283-.183-.549-.393-.86-.512-.623-.239-1.273-.376-1.886-.623-.312-.128-.531-.476-.422-.815.092-.293.284-.632.54-.77.376-.2.843-.246 1.273-.338 1.145-.238 2.042-.87 2.766-1.758.375-.458.448-.998.238-1.566-.467-1.245-1.42-1.977-2.619-2.408-.623-.22-1.3-.302-1.932-.504-.174-.054-.302-.293-.412-.476-.128-.21.1-.75.357-.842.522-.192 1.044-.375 1.566-.559 1.053-.366 2.124-.677 3.012-1.4.403-.33.504-1.08.183-1.502a5.092 5.092 0 00-2.728-1.831c-.43-.12-.88-.147-1.31-.248-.402-.091-.769-.558-.75-.97a.828.828 0 01.549-.77c.513-.2 1.062-.329 1.593-.485 1.73-.494 3.342-1.236 4.807-2.298.751-.55.834-1.584.21-2.362-.723-.898-1.638-1.484-2.7-1.896a11.947 11.947 0 01-1.2-.567c-.33-.174-.348-1.008-.018-1.181.485-.257.98-.504 1.502-.687 1.373-.486 2.747-.953 3.919-1.84.357-.266.686-.568.705-1.072.018-.44-.43-.989-1.017-1.181-.32-.11-.632-.21-.961-.293-2.115-.504-4.203-.476-6.263.265-.623.22-1.264.43-1.914.522-.238.037-.577-.265-.778-.494-.247-.284-.138-.669.091-.916.303-.311.66-.604 1.044-.806.586-.32 1.209-.558 1.813-.842.083-.037.156-.156.183-.247.064-.266-.073-.44-.357-.44-3.8-.036-7.59-.036-10.649-.036zm17.031 9.074c.193.311.421.686.66 1.062.247.375.53.723.741 1.108.907 1.602.614 3.067-.86 4.102-.825.577-1.722 1.035-2.555 1.593-.256.174-.403.494-.614.76.193.32.33.632.531.897.266.358.632.641.87 1.017.293.467.54.97.733 1.483.201.559.091 1.145-.32 1.557-.54.55-1.173 1.016-1.759 1.529-.311.265-.366.87-.146 1.218.53.842 1.144 1.657 1.575 2.554.467.97.311 1.978-.34 2.848-.329.44-.768.806-1.144 1.209-.622.659-.622.833-.009 1.703.193.274.421.522.605.796.338.513.33 1.072 0 1.566-.303.458-.65.906-1.044 1.291-.559.55-1.172 1.026-1.758 1.538-.183.165.009.76.265.834.32.082.641.228.97.238 2.675.1 5.348.119 8.013.448.32.037.732.055.98-.1 1.062-.669 2.096-.385 3.204-.138.852.193 1.776.138 2.665.128 3.57-.045 7.142-.064 10.704-.192 2.673-.091 5.365-.174 7.947-.961 2.885-.87 5.787-1.676 8.736-2.28.805-.165 1.437-.577 1.721-1.41.192-.568.696-.834 1.181-1.127.476-.283.952-.576 1.41-.888.293-.201.321-.897.055-1.218-.21-.256-.394-.558-.659-.741a9.364 9.364 0 00-1.447-.824c-.696-.34-1.428-.614-2.124-.97-.623-.321-.641-1.329-.055-1.658.293-.165.595-.302.888-.467.87-.495 1.749-.97 2.591-1.52.577-.376.705-1.181.403-1.795-.714-1.428-1.758-2.573-3.04-3.507-.54-.393-1.089-.76-1.629-1.153-.257-.193-.467-.998-.293-1.237.192-.256.43-.54.705-.668 1.108-.513 2.289-.879 3.36-1.456 1.373-.732 1.318-2.417-.055-3.232-.357-.21-.833-.284-1.264-.302-.43-.018-.869.165-1.309.174-.174.009-.421-.165-.522-.33-.101-.165-.128-.421-.082-.623.045-.2.174-.412.32-.567.229-.238.504-.44.742-.66.504-.466.43-.98-.202-1.236-4.23-1.74-8.607-3.058-13.002-4.33-.11-.028-.22-.028-.33-.046-.457-.083-1.016.302-.906.695.486 1.74-.174 3.04-1.502 4.112-.43.348-.842.732-1.245 1.108-.311.293-.293.86.028 1.2.686.732 1.41 1.428 2.069 2.188.66.75 1.319 1.52 1.676 2.481.201.55.201 1.08.018 1.63-.229.65-.595 1.2-1.135 1.62-.696.54-1.42 1.044-2.143 1.575.137.412.183.77.357 1.017.449.64.998 1.208 1.428 1.85.596.887.678 1.886.34 2.884-.404 1.172-.999 2.252-1.924 3.094-1.767 1.594-1.336 2.042-.384 3.343.192.265.348.567.494.87.531 1.107.312 2.151-.659 3.012-.33.293-.687.604-1.09.76-.393.156-.86.156-1.3.146-.174-.009-.42-.192-.494-.347-.073-.165-.046-.486.073-.605.458-.476.989-.879 1.465-1.337.266-.247.22-.934-.018-1.236-.422-.55-.962-.952-1.612-1.135-.961-.275-1.95-.449-2.92-.687a.808.808 0 01-.642-.678c-.073-.412.275-.824.77-.915.33-.055.659-.1.988-.138 2.756-.31 4.34-2.06 5.403-4.422.238-.54.155-1.099-.128-1.612-.678-1.245-1.74-2.023-3.077-2.408-.641-.183-1.319-.201-1.978-.32-.458-.073-.86-.513-.87-.88-.009-.439.33-.887.751-.951.55-.083 1.117-.11 1.657-.22 1.429-.302 2.784-.788 3.947-1.712.842-.669 1.044-1.832.43-2.693a8.321 8.321 0 00-.842-1.034 9.604 9.604 0 00-3.004-2.079 17.41 17.41 0 01-1.492-.741c-.449-.248-.513-1.209-.11-1.465.376-.238.77-.44 1.145-.669.769-.448 1.566-.86 2.28-1.382.43-.32.778-.788 1.08-1.246.33-.503.293-1.08-.046-1.575-.247-.357-.549-.714-.897-.98-1.474-1.107-3.159-1.72-5-1.538-1.126.11-1.95-.064-2.517-1.098-.138-.257-.504-.467-.797-.54-1.3-.294-2.61-.587-3.937-.779-1.548-.22-3.104-.357-4.652-.494a28.404 28.404 0 00-2.335-.074c-.201 0-.485.11-.567.257-.083.146-.046.458.064.613.375.55.833 1.044 1.208 1.593.788 1.145.605 2.345-.53 3.242-.697.55-1.475 1.007-2.207 1.502-.403.265-.641.622-.724 1.18zm111.086-5.75c-.888.082-1.676.1-2.445.247-.979.183-1.95.448-2.911.732-3.095.925-6.154 1.923-9.102 3.269-2.967 1.355-5.768 2.93-8.094 5.21a21.479 21.479 0 01-4.533 3.379c-2.829 1.584-5.448 3.47-7.957 5.512-.86.696-1.62 1.52-2.408 2.307-.274.275-.229.998.064 1.227.971.742 1.951 1.474 2.94 2.189.54.384 1.217.631 1.657 1.108 1.767 1.94 4.02 3.14 6.29 4.33 2.372 1.246 4.67 2.601 6.831 4.185 1.255.925 2.463 1.923 3.736 2.811.998.696 2.033 1.383 3.131 1.914 2.72 1.3 5.567 2.261 8.488 3.003.852.22 1.758.247 2.647.339 2.041.201 3.397-.75 4.23-2.564.329-.723.558-1.465.531-2.252-.046-1.118-.147-2.225-.22-3.333-.091-1.374-.641-2.582-1.419-3.69-.385-.55-.815-1.063-1.236-1.575-1.209-1.465-2.463-2.885-3.617-4.386-1.172-1.53-2.555-2.775-4.276-3.654-.586-.302-1.126-.723-1.602-1.18-.202-.193-.303-.633-.229-.907.073-.275.384-.623.641-.678a7.52 7.52 0 011.977-.146c2.042.11 3.983-.303 5.888-.99 2.646-.942 5.064-2.307 7.334-3.936.623-.45 1.145-1.063 1.603-1.685 1.364-1.85 1.675-4.551.036-6.868-1.987-2.81-4.789-3.873-7.975-3.919zM70.052 90.686c.128 0 .238-.009.347 0 1.786.092 3.114-1.593 2.628-3.378a29.229 29.229 0 00-.485-1.593c-.375-1.1-1.062-1.95-2.033-2.573-.467-.302-.98-.522-1.446-.824a8.285 8.285 0 01-1.053-.815c-.577-.504-.614-1.52-.074-2.106.22-.248.458-.513.742-.65 2.225-1.1 4.45-1.264 6.721-.074 1.575.824 3.195 1.575 4.789 2.363a6.071 6.071 0 003.891.549c1.227-.22 1.969-.906 2.427-2.023.384-.934.238-1.768-.43-2.464-1.154-1.2-2.326-2.399-3.553-3.516a9.405 9.405 0 00-2.198-1.492c-2.518-1.2-4.963-2.509-7.014-4.441-.586-.55-1.337-.77-2.142-.806-1.218-.064-2.454-.064-3.663-.238a26.07 26.07 0 00-4.99-.265c-2.353.091-4.652-.202-6.968-.623-3.938-.723-7.893-1.328-11.84-1.95-.173-.028-.466.11-.558.265-.092.156-.055.44.028.632.128.302.33.577.512.851 1.3 1.942 2.692 3.828 3.892 5.833 2.069 3.47 4.642 6.51 7.435 9.404.924.961 1.932 1.868 2.72 2.93 1.565 2.097 3.451 3.763 5.768 4.953.201.101.393.211.577.34 1.767 1.318 3.827 1.693 5.97 1.712z" fill="#5271FF"/><path d="M27.428 31.555c.202.028.641.064 1.08.128.724.11 1.54 1.108 1.594 1.905.01.11.028.22 0 .32-.229.87-.632 1.63-1.273 2.271-.622.614-1.675.77-2.435.302-.376-.22-.751-.485-1.035-.805-.815-.925-.842-1.97-.366-3.077.44-.989 1.3-1.044 2.435-1.044zm97.773 16.244c-.092.897-.44 1.767-1.2 2.252-1.382.88-2.792 1.777-4.459 2.06-.156.028-.348-.173-.522-.274.101-.183.165-.43.33-.54.265-.183.595-.293.906-.403.962-.348 1.703-1.017 2.454-1.667.751-.65.843-1.51.211-2.371a8.047 8.047 0 00-1.346-1.438c-.687-.55-1.465-.998-2.179-1.51-.266-.193-.467-.468-.687-.706-.183-.192-.147-.695.091-.897.165-.128.376-.247.577-.275.202-.027.44.037.641.12 1.896.796 3.333 2.151 4.533 3.772.375.55.641 1.163.65 1.877z" fill="#5271FF"/></svg>